<?xml version="1.0" encoding="utf-8"?>
<svg viewBox="0 0 1250 1250" xmlns="http://www.w3.org/2000/svg">
  <path d="M322.8 95.1c93-.3 186.1 0 279.2-.1 21.3.2 42.7-.8 64 1.6a304.2 304.2 0 0 1 201.9 106.5 305.5 305.5 0 0 1 23.4 362.2 305.1 305.1 0 0 1-177 129.2c-.5 1.2.4 2.4.7 3.5l197.3 426.7c4.8 10.9 10.4 21.5 14.8 32.5-24.4.5-48.8.1-73.1.3H735c-1.5.1-3-.6-3.4-2.1L549.3 705.7c-1.3-3.5-3.2-6.9-3.8-10.6 55.6-.3 111.1 0 166.6-.2-5.3-12.7-11.8-25-17.5-37.5L641.2 545A145 145 0 0 0 630 255c-102.3 0-204.7.1-307.1-.1-.6-5-.2-10-.2-14.9V107c0-4-.3-8 .2-11.9Zm160 452.4c2.2 2.4 3 5.6 4.3 8.5l50.8 122c2.3 5.7 4.9 11.2 7 17h-62.1c-.6-14 0-28-.3-42v-93c0-4.2-.1-8.3.3-12.5Zm-160 147.6c53.1-.2 106.3-.2 159.4 0 .6 14 0 28 .3 41.9v354c-.2 22 .3 44.2-.3 66.2-25.4.6-50.8 0-76.2.3-27.7-.2-55.5.3-83.2-.3-.6-26.4 0-52.8-.3-79.2V727c.2-10.6-.3-21.3.3-31.9Z" style="fill: rgb(33, 96, 183);"/>
</svg>