<svg xmlns="http://www.w3.org/2000/svg" viewBox="0 0 105 96">
  <path fill="currentColor" fill-rule="evenodd" d="M5.4 27.5a2 2 0 1 0-2.8 3 2 2 0 0 0 2.8-3m8-9a2 2 0 1 0-2.8 3 2 2 0 0 0 2.8-3m8-9a2 2 0 1 0-2.8 3 2 2 0 0 0 2.8-3m8.9-6.4c.4-.2.6-.4.7-.7l-4 1c1 .3 2.5.3 3.3-.3M4.4 42.5a2 2 0 0 0-2.8.1 2 2 0 1 0 2.9 2.8c.7-.8.7-2-.1-2.9m8-8a2 2 0 1 0-2.8 3 2 2 0 0 0 2.8-3m8-9a2 2 0 1 0-2.8 3 2 2 0 0 0 2.8-3m8-9a2 2 0 0 0-2.8 3 2 2 0 1 0 2.8-3m9-8a2 2 0 1 0-2.8 3 2 2 0 0 0 2.8-3m5.2-6.9a3 3 0 0 0 2.9 0c.6-.5.7-1.1.2-1.6a55 55 0 0 0-3.5 0c-.4.6-.2 1.2.4 1.6M3.4 59.5a2 2 0 1 0-2.8 3 2 2 0 0 0 2.8-3m9-9a2 2 0 1 0-2.8 3 2 2 0 0 0 2.8-3m8-10a2 2 0 1 0-2.8 3 2 2 0 0 0 2.8-3m8-8a2 2 0 1 0-2.8 3 2 2 0 0 0 2.8-3m8-8a2 2 0 1 0 0 2.9 2 2 0 0 0 0-2.9m8-10a2 2 0 1 0-2.8 3 2 2 0 0 0 2.8-3m9-8a2 2 0 1 0-2.7 3 2 2 0 0 0 2.7-3m-42 60a2 2 0 1 0-2.7 3 2 2 0 0 0 2.7-3m8-10a2 2 0 1 0-2.8 3 2 2 0 0 0 2.8-3m9-8a2 2 0 1 0-2.8 3 2 2 0 0 0 2.8-3m8-9a2 2 0 1 0-2.8 3 2 2 0 0 0 2.8-3m8-8.9a2 2 0 1 0-2.8 2.9 2 2 0 0 0 2.8-3m8-8a2 2 0 1 0-2.8 3 2 2 0 0 0 2.8-3m8-9a2 2 0 1 0-2.8 3 2 2 0 0 0 2.8-3m6.4-6a4 4 0 0 0 3.2.1l-2-.8-2-.7c-.1.5 0 1 .8 1.4m-49.4 66a2 2 0 0 0-2.9.1 2 2 0 0 0 3 2.8c.7-.8.7-2-.1-2.9m10-9a2 2 0 1 0-2.8 3 2 2 0 0 0 2.8-3m8-9a2 2 0 1 0-2.8 3 2 2 0 0 0 2.8-3m9-9a2 2 0 1 0-2.8 3 2 2 0 0 0 2.8-3m8-8a2 2 0 1 0-2.8 3 2 2 0 0 0 2.8-3m8-9a2 2 0 1 0-2.8 3 2 2 0 0 0 2.8-3m8-9a2 2 0 0 0-2.9.1 2 2 0 1 0 3 2.8c.7-.8.7-2-.1-2.9m5.3-5.1A2.1 2.1 0 0 0 77 15l-3.2-3-.2.2c-.8 1-.8 2.3 0 3.2M25.4 81.5a2 2 0 1 0 0 2.8c.8-.7.8-2 0-2.8m8-9a2 2 0 1 0-2.8 3 2 2 0 0 0 2.8-3m10-9a2 2 0 0 0-2.9.1 2 2 0 1 0 3 2.7c.7-.7.7-2-.1-2.8m8-9a2 2 0 1 0-2.8 3 2 2 0 0 0 2.8-3m8-9a2 2 0 1 0-2.8 3 2 2 0 0 0 2.8-3m8-9a2 2 0 1 0-2.8 3 2 2 0 0 0 2.8-3m9-9a2 2 0 1 0-2.8 3 2 2 0 0 0 2.8-3m6-5.1c.5.7 1 .8 1.6.4L82.4 19a4 4 0 0 0 0 3.4m-49 66.2a2 2 0 1 0-2.7 2.9 2 2 0 0 0 2.7-3m8-9a2 2 0 1 0-2.8 3 2 2 0 0 0 2.8-3m8-9a2 2 0 1 0-2.8 3 2 2 0 0 0 2.8-3m9-9a2 2 0 0 0-2.8 3c.8.7 2 .7 2.9-.1.7-.8.7-2.1-.1-2.9m9-9a2 2 0 0 0-2.8 3 2 2 0 0 0 2.8-3m8-8a2 2 0 0 0-2.8 3 2 2 0 0 0 2.8-3m8-9a2 2 0 0 0-2.9.1 2 2 0 0 0 3 2.8c.7-.8.7-2.1-.1-2.9m-34 51a2 2 0 1 0-2.8 3 2 2 0 0 0 2.8-3m9-9a2 2 0 1 0-2.8 3 2 2 0 0 0 2.8-3m9-9a2 2 0 1 0-2.8 3 2 2 0 0 0 2.8-3m8-9a2 2 0 0 0-2.9.1 2 2 0 1 0 3 2.8c.7-.8.7-2.1-.1-2.9m7-9a2 2 0 0 0-2.9.1 2 2 0 0 0 .1 2.9 2 2 0 1 0 2.8-3m7.1-7.9c-.6.8-.5 2.1 0 2.9.4.5 1 .6 1.4.4l-.2-3.9c-.5 0-1 .1-1.2.6M56.4 92.5a2 2 0 1 0-2.8 3 2 2 0 0 0 2.8-3m10-8a2 2 0 1 0-2.8 3 2 2 0 0 0 2.8-3m8-9a2 2 0 0 0-2.8 3 2 2 0 0 0 2.8-3m8-9a2 2 0 1 0-2.8 3 2 2 0 0 0 2.8-3m8-8a2 2 0 1 0-2.8 3 2 2 0 0 0 2.8-3m-17 33a2 2 0 0 0-2.9.1 2 2 0 1 0 2.8 0m9.1-9.1a2 2 0 1 0-2.8 3 2 2 0 0 0 2.8-3m8-9a2 2 0 1 0-2.8 2.9 2 2 0 0 0 2.8-2.9m14.2-13.3a28 28 0 0 1-1.2-.4c.4.3.8.4 1.2.4"/>
</svg>