<svg xmlns="http://www.w3.org/2000/svg" viewBox="0 0 150 75">
  <path fill="currentColor" fill-rule="evenodd" d="M4.8 40.7c-.7-.7-1.8-.6-2.5 0-.7.7-.7 1.8 0 2.4a2 2 0 0 0 2.6 0c.6-.7.6-1.8-.1-2.4m7.2-7.6c-.8-.6-2-.6-2.6.1-.7.7-.6 1.7 0 2.4.8.6 2 .6 2.6 0 .7-.8.7-1.8 0-2.5m9.8-9.1c-.8-.7-1.9-.7-2.6 0-.6.7-.6 1.7.1 2.4.7.6 1.9.6 2.5-.1.7-.7.7-1.7 0-2.4m8.9-8.4c-.7-.6-1.9-.6-2.5.1-.7.7-.7 1.7 0 2.4.8.6 1.9.6 2.6 0 .6-.8.6-1.8-.1-2.5m8.9-9.2a2 2 0 0 0-2.5 0c-.7.8-.7 1.8 0 2.5.8.6 2 .6 2.6-.1.7-.7.6-1.7 0-2.4M46 1a26 26 0 0 1-1-.3c.3.2.7.3 1 .3M3 56.6a2 2 0 0 0-2.5 0c-.7.7-.7 1.8 0 2.4.8.7 2 .6 2.6 0 .7-.7.6-1.8 0-2.4m8.9-8.4c-.8-.6-1.9-.6-2.6 0-.7.8-.6 1.8 0 2.5.8.6 2 .6 2.6-.1.7-.7.7-1.7 0-2.4m8.9-8.4a2 2 0 0 0-2.6.1c-.6.7-.6 1.7.1 2.4.7.6 1.9.6 2.5 0 .7-.8.7-1.8 0-2.5m8.9-9.2c-.7-.6-1.8-.6-2.5.1s-.7 1.7 0 2.4c.8.6 1.9.6 2.6-.1.6-.7.6-1.7-.1-2.4m8-8.4c-.7-.6-1.8-.6-2.5.1s-.6 1.7 0 2.4c.8.6 2 .6 2.6 0 .7-.8.7-1.8 0-2.5m8-8.3c-.7-.7-1.9-.6-2.6 0-.6.7-.6 1.8.1 2.4.7.6 1.9.6 2.5 0 .7-.7.7-1.8 0-2.4m9.8-9.3c-.7-.6-1.9-.6-2.5.1-.7.7-.7 1.7 0 2.4.8.6 1.9.6 2.6 0 .6-.8.6-1.8-.1-2.5M3 74c.8-.6.8-1.7-.1-2.3a3 3 0 0 0-2.9-.2l1 3c.7.1 1.4 0 2-.4m9-10.8c-.8-.6-2-.6-2.6 0-.7.7-.6 1.8 0 2.4.8.7 2 .6 2.6 0 .7-.7.7-1.8 0-2.4m8-8.3c-.7-.7-1.9-.7-2.5 0-.7.7-.7 1.7 0 2.4.7.6 1.9.6 2.5-.1.7-.7.7-1.7 0-2.4m8-8.4c-.7-.6-1.8-.6-2.5.1s-.7 1.7 0 2.4c.8.6 2 .6 2.6 0 .7-.8.6-1.8 0-2.5m9.7-9.2c-.7-.6-1.8-.6-2.5.1s-.6 1.7 0 2.4c.8.6 2 .6 2.6-.1.7-.7.6-1.7 0-2.4m8-7.5c-.7-.6-1.9-.6-2.6 0-.6.7-.6 1.8.1 2.4.7.7 1.9.6 2.5 0 .7-.7.7-1.8 0-2.4m8.9-9.2c-.7-.7-1.9-.6-2.5 0-.7.7-.7 1.8 0 2.4.8.6 1.9.6 2.6 0 .6-.7.6-1.8-.1-2.4m8-8.4a2 2 0 0 0-2.5 0c-.7.7-.6 1.8 0 2.4.8.7 2 .6 2.6 0 .7-.7.7-1.8 0-2.4m8.5-6.3-1.8-.3.2.2c.5.4 1.2.4 1.6 0M19 70c-.6-.6-1.8-.6-2.4 0-.7.7-.7 1.8 0 2.4.7.7 1.9.7 2.6 0 .6-.7.6-1.8-.1-2.4m8.9-8.4c-.7-.6-1.8-.6-2.5.1s-.7 1.7 0 2.4c.8.6 2 .6 2.6-.1.7-.7.6-1.7 0-2.4m8.9-8.4c-.8-.6-2-.6-2.6.1-.7.7-.6 1.8 0 2.4.8.6 2 .6 2.6 0 .7-.8.7-1.8 0-2.5m8-8.3c-.7-.7-1.9-.6-2.5 0-.7.7-.7 1.8 0 2.4.7.6 1.9.6 2.5 0 .7-.7.7-1.8 0-2.4m8.9-8.4a2 2 0 0 0-2.5 0c-.7.7-.7 1.8 0 2.4a2 2 0 0 0 2.6 0c.7-.7.6-1.8-.1-2.4m8.9-8.4a2 2 0 0 0-2.5 0c-.7.7-.6 1.8 0 2.4.8.7 2 .7 2.6 0 .7-.7.6-1.8 0-2.4m8-9.2c-.7-.6-1.9-.6-2.6 0-.6.7-.6 1.8.1 2.4.7.7 1.9.6 2.5 0 .7-.7.7-1.8 0-2.4m8.9-8.4a2 2 0 0 0-2.5 0c-.7.8-.7 1.8 0 2.5.8.6 1.9.6 2.6-.1.6-.7.6-1.8-.1-2.4M35.2 70c-.8-.6-1.9-.6-2.6 0-.6.8-.6 1.8.1 2.5.7.6 1.9.6 2.5-.1.7-.7.7-1.8 0-2.4m9.8-9.2c-.7-.6-1.9-.6-2.5 0-.7.7-.7 1.8 0 2.4.7.7 1.9.6 2.5 0 .7-.7.7-1.8 0-2.4m8-9.2c-.7-.7-1.8-.6-2.5 0-.7.7-.7 1.8 0 2.4.8.6 2 .6 2.6 0 .7-.7.6-1.8 0-2.4m9.7-8.4a2 2 0 0 0-2.5 0c-.7.7-.6 1.8 0 2.4.8.7 2 .6 2.6 0 .7-.7.7-1.8 0-2.4m8-9.2c-.7-.7-1.9-.6-2.6 0-.6.7-.6 1.8.1 2.4.7.6 1.9.6 2.5 0 .7-.7.7-1.8 0-2.4m7.1-7.6c-.7-.6-1.8-.6-2.5.1s-.7 1.7 0 2.4c.8.6 2 .6 2.6-.1.7-.7.6-1.7 0-2.4m9.7-9.2a2 2 0 0 0-2.5 0c-.7.8-.6 1.8 0 2.5.8.6 2 .6 2.6-.1.7-.7.6-1.7 0-2.4m7.6-6.9-1.8-.7.4.5c.4.4 1 .5 1.4.2M52.1 67.5a2 2 0 0 0-2.5 0c-.7.7-.7 1.8 0 2.4.8.7 2 .6 2.6 0 .7-.7.6-1.8 0-2.4M61 60c-.7-.7-1.8-.7-2.5 0s-.6 1.8.1 2.4a2 2 0 0 0 2.5 0c.7-.8.7-1.8 0-2.4m8.9-9.3c-.7-.6-1.9-.6-2.5.1-.7.7-.7 1.7 0 2.4.7.6 1.9.6 2.5-.1.7-.7.7-1.7 0-2.4m8-8.3c-.7-.7-1.8-.6-2.5 0-.7.7-.7 1.8 0 2.4.8.6 2 .6 2.6 0 .7-.7.6-1.8 0-2.4M87 34c-.8-.7-2-.6-2.6 0-.7.7-.6 1.8 0 2.4.8.7 2 .6 2.6 0 .7-.7.7-1.8 0-2.4m8-9.2c-.7-.7-1.9-.6-2.5 0-.7.7-.7 1.8 0 2.4.7.6 1.9.6 2.5 0 .7-.7.7-1.8 0-2.4m9.8-9.3c-.7-.6-1.8-.6-2.5.1s-.7 1.7 0 2.4c.8.6 1.9.6 2.6 0 .6-.8.6-1.8-.1-2.5M60.2 75c-.8-.6-1.9-.6-2.6.1-.6.7-.6 1.7.1 2.4.7.6 1.9.6 2.5 0 .7-.8.7-1.8 0-2.5m8.8-8.3c-.6-.7-1.8-.6-2.4 0-.7.7-.7 1.8 0 2.4.7.6 1.9.6 2.6 0 .6-.7.6-1.8-.1-2.4m8.9-9.3c-.7-.6-1.8-.6-2.5.1s-.7 1.7 0 2.4c.8.6 2 .6 2.6 0 .7-.8.6-1.8 0-2.5m7.1-8.4c-.8-.6-1.9-.5-2.6.1-.6.7-.6 1.8.1 2.4a2 2 0 0 0 2.5 0c.7-.7.7-1.8 0-2.4m9.8-8.4c-.7-.7-1.9-.6-2.5 0-.7.7-.7 1.8 0 2.4.7.7 1.9.6 2.5 0 .7-.7.7-1.8 0-2.4m8.9-8.4a2 2 0 0 0-2.5 0c-.7.7-.7 1.8 0 2.4a2 2 0 0 0 2.6 0c.7-.7.6-1.8-.1-2.4m8.9-9.3c-.7-.6-1.8-.5-2.5.2-.7.6-.6 1.7 0 2.3.8.7 2 .6 2.6 0 .7-.7.7-1.8 0-2.4M77.1 73.4c-.7-.7-1.8-.6-2.5 0-.7.7-.7 1.8 0 2.4.8.6 2 .6 2.6 0 .7-.7.6-1.8 0-2.4m8-9.3c-.8-.6-1.9-.6-2.6.1-.6.7-.6 1.7.1 2.4a2 2 0 0 0 2.5 0c.7-.8.7-1.8 0-2.5m8.8-7.5c-.6-.6-1.8-.6-2.4 0-.7.7-.7 1.8 0 2.4a2 2 0 0 0 2.6 0c.6-.7.6-1.8-.1-2.4m8.9-10.1c-.7-.6-1.8-.6-2.5.1s-.7 1.8 0 2.4c.8.6 2 .6 2.6 0 .7-.8.6-1.8 0-2.5m8.9-8.3c-.8-.7-2-.6-2.6 0-.7.7-.6 1.8 0 2.4.8.6 2 .6 2.6 0 .7-.7.7-1.8 0-2.4m8-8.4c-.7-.6-1.9-.6-2.5 0-.7.7-.7 1.8 0 2.4.7.7 1.9.6 2.6 0 .6-.7.6-1.8-.1-2.4m-26.8 41c-.7-.6-1.9-.6-2.5.1-.7.7-.7 1.7 0 2.4.8.6 1.9.6 2.6 0 .6-.8.6-1.8-.1-2.5m8-8.3c-.7-.7-1.8-.6-2.5 0-.7.7-.6 1.8 0 2.4.8.6 2 .6 2.6 0 .7-.7.6-1.8 0-2.4m9.7-9.2c-.7-.7-1.8-.7-2.5 0s-.6 1.8.1 2.4a2 2 0 0 0 2.5 0c.7-.8.7-1.8 0-2.4m7.9-7.6c-.6-.6-1.8-.6-2.4 0-.7.7-.7 1.8 0 2.4.8.7 1.9.7 2.6 0 .6-.7.6-1.8-.1-2.4m9.8-9.2a2 2 0 0 0-2.5 0c-.7.7-.7 1.8 0 2.4a2 2 0 0 0 2.6 0c.7-.7.6-1.8-.1-2.4M110.2 70c-.8-.6-1.9-.6-2.6 0-.6.7-.6 1.8.1 2.4.7.7 1.9.7 2.5 0 .7-.7.7-1.8 0-2.4m8-9.2c-.7-.6-1.9-.6-2.5 0-.7.7-.7 1.8 0 2.4a2 2 0 0 0 2.6 0c.6-.7.6-1.8-.1-2.4m8.9-9.2c-.7-.7-1.8-.6-2.5 0-.7.7-.7 1.8 0 2.4.8.6 2 .6 2.6 0 .7-.7.6-1.8 0-2.4M136 44c-.7-.6-1.8-.6-2.5.1s-.6 1.7 0 2.4c.8.6 2 .6 2.6-.1.7-.7.7-1.7 0-2.4m-9.9 23.5a2 2 0 0 0-2.5 0c-.7.7-.6 1.8 0 2.4.8.7 2 .6 2.6 0 .7-.7.6-1.8 0-2.4m8-7.5a2 2 0 0 0-2.6 0c-.6.7-.6 1.8.1 2.4.7.6 1.9.6 2.5 0 .7-.7.7-1.8 0-2.4m7.3-9.2c-.7.7-.7 1.7 0 2.4.7.6 1.9.6 2.6 0 .3-.4.4-.8.4-1.2l-.6-1.3c-.7-.6-1.8-.6-2.4.1M134.3 75c-.8-.6-1.9-.6-2.6.1-.6.7-.6 1.7.1 2.4.7.6 1.9.6 2.5 0 .7-.8.7-1.8 0-2.5m8.9-8.3c-.7-.7-1.9-.6-2.5 0-.7.7-.7 1.8 0 2.4.8.6 1.9.6 2.6 0 .6-.7.6-1.8-.1-2.4m5.8 9.1c.1.3.4.4.7.5v-3.4c-.3 0-.6.2-.8.5-.5.7-.5 1.8 0 2.4"/>
</svg>