<svg xmlns="http://www.w3.org/2000/svg" viewBox="0 0 960 225">
  <path fill="#364f6b" d="M9.4 9.9h21V64h22.3V10h21v133h-21V83H30.3v60H9.4Zm114 134.9q-15.3 0-23.3-8.7-8-8.6-8-24.8V10h21v103q0 6.8 2.7 9.8 2.8 3 7.9 3 5.1 0 7.9-3 2.7-3 2.7-9.8V9.9h20.2v101.4q0 16.2-8 24.8-8 8.7-23.2 8.7ZM173 9.8h29.8l13.3 95.3h.4l13.3-95.2h29.8v133H240V42.2h-.4l-15.2 100.7h-17.5L191.6 42.2h-.4v100.7H173Zm122 0h28.4l21.6 133h-20.9l-3.8-26.3v.3h-23.7l-3.8 26h-19.4Zm22.9 89-9.3-65.7h-.4L299 98.8Z"/>
  <path fill="#3fc1c9" d="M387.9 144.8q-15 0-23-8.6-7.8-8.5-7.8-24.1V40.7q0-15.6 7.9-24.2Q372.9 8 387.9 8q15 0 22.9 8.5 7.8 8.6 7.8 24.2v14H399V39.3Q399 27 388.5 27T378 39.3v74.3q0 12.2 10.4 12.2 10.5 0 10.5-12.2V93.3h19.8V112q0 15.6-8 24.1-7.8 8.6-22.8 8.6Zm77.6 0q-15.4 0-23.6-8.8-8.1-8.7-8.1-24.7V41.4q0-16 8.1-24.7Q450.1 8 465.5 8q15.4 0 23.5 8.7 8.2 8.8 8.2 24.7v70q0 15.9-8.2 24.6-8.1 8.8-23.5 8.8Zm0-19q10.8 0 10.8-13.1V40q0-13.1-10.8-13.1-10.9 0-10.9 13v72.7q0 13 10.9 13ZM515 9.8h31.9q15.6 0 23.4 8.4 7.8 8.4 7.8 24.6V110q0 16.2-7.8 24.5-7.8 8.4-23.4 8.4h-32Zm31.5 114q5.1 0 7.9-3 2.8-3 2.8-9.8V41.8q0-6.8-2.8-9.9-2.8-3-7.9-3H536v95Zm49.3-114h57v19h-36.1V64h28.7v19h-28.7v41h36.1v19h-57Z"/>
  <path fill="#666" d="m9 214.5 11-33.4h6l11 33.4h-5.4l-5.4-18.2q-.9-2.7-1.6-5.5l-1.6-5.6h-.2l-1.5 5.6-1.7 5.5-5.5 18.2Zm6.2-9.5v-4h15.5v4Zm25.8 9.5v-33.4h10q3.8 0 6.7 1 2.8 1 4.5 3.1 1.6 2.3 1.6 6 0 3.6-1.6 6-1.6 2.3-4.5 3.5-2.8 1-6.4 1H46v12.8Zm5.1-16.8h4.7q4 0 6-1.6t2-5q0-3.3-2.1-4.6-2-1.3-6.2-1.3h-4.4ZM70 214.5v-33.4h10q3.7 0 6.6 1 3 1 4.5 3.1 1.7 2.3 1.7 6 0 3.6-1.6 6-1.6 2.3-4.5 3.5-2.8 1-6.5 1H75v12.8Zm5-16.8h4.7q4.1 0 6-1.6 2-1.6 2-5 0-3.3-2-4.6-2.1-1.3-6.2-1.3H75Zm32.9 17.5q-3.5 0-6.6-1.3-3-1.3-5.3-3.7l2.8-3.3q1.8 1.8 4.2 2.8 2.4 1 5 1 3 0 4.7-1.3 1.7-1.4 1.7-3.6 0-1.5-.7-2.5-.7-.9-2-1.5-1.2-.7-2.7-1.3l-4.7-2q-1.6-.8-3.2-2-1.5-1-2.6-2.7-1-1.7-1-4.1 0-2.6 1.4-4.7 1.4-2 3.9-3.3 2.4-1.2 5.6-1.2 3 0 5.6 1.2 2.6 1 4.5 3l-2.7 3.2q-1.6-1.3-3.5-2.2-1.8-.7-3.9-.7-2.6 0-4.1 1.1-1.6 1.2-1.6 3.3 0 1.4.8 2.3.8 1 2 1.6l2.6 1.2 4.7 2q2 .8 3.5 2 1.5 1.1 2.4 2.8.9 1.7.9 4.1 0 2.7-1.4 5-1.4 2.2-4 3.5-2.7 1.3-6.3 1.3Zm16.9 8.3-1.2-2.8q2.3-1 3.6-2.7 1.3-1.6 1.3-3.7l-.4-4 2.2 3.3q-.5.5-1 .7l-1.3.2q-1.4 0-2.4-.8-1-.9-1-2.5 0-1.5 1-2.4 1-.8 2.5-.8 2 0 3 1.4 1 1.5 1 4 0 3.5-2 6.2t-5.3 4Zm27-9-6.7-33.4h5.5l3.1 17.5.9 5.4.8 5.6h.2q.4-3 1-5.6l1.1-5.4 4.2-17.5h5l4.2 17.5 1.1 5.4 1.1 5.6h.2l.8-5.6.8-5.4 3.2-17.5h5.2l-6.7 33.4H170l-4.3-18.8-.7-3.8-.7-4.1h-.2q-.2 2.2-.6 4.1l-.7 3.8-4.4 18.8Zm36.8 0v-33.4H208v4.3h-14.5v9.6h12.3v4.2h-12.3v11h15v4.3Zm26.8 0v-33.4h10.4q3.4 0 6 .8 2.7.8 4.2 2.6t1.5 4.8q0 2.6-1.3 4.6-1.2 2-3.5 2.7v.2q3 .6 4.8 2.5 1.8 2 1.8 5.3 0 3.4-1.6 5.6-1.7 2.2-4.5 3.3-3 1-6.7 1Zm5.1-19.4h4.6q3.9 0 5.6-1.4 1.8-1.3 1.8-3.7 0-2.6-1.8-3.8-1.9-1-5.4-1h-4.8Zm0 15.4h5.4q4 0 6.2-1.4 2.2-1.5 2.2-4.6 0-2.9-2.1-4.2-2.2-1.3-6.3-1.3h-5.4Zm33.8 4.7q-3.6 0-6.6-1.3-3-1.3-5.3-3.7l2.8-3.3q1.8 1.8 4.2 2.8 2.4 1 5 1 3 0 4.7-1.3 1.6-1.4 1.6-3.6 0-1.5-.7-2.5-.6-.9-1.9-1.5-1.2-.7-2.7-1.3l-4.7-2q-1.6-.8-3.2-2-1.6-1-2.6-2.7-1-1.7-1-4.1 0-2.6 1.4-4.7 1.4-2 3.9-3.3 2.4-1.2 5.6-1.2 3 0 5.6 1.2 2.6 1 4.5 3l-2.7 3.2q-1.6-1.3-3.5-2.2-1.8-.7-3.9-.7-2.6 0-4.2 1.1-1.5 1.2-1.5 3.3 0 1.4.8 2.3.7 1 2 1.6l2.6 1.2 4.7 2q2 .8 3.5 2 1.5 1.1 2.4 2.8.8 1.7.8 4.1 0 2.7-1.3 5-1.4 2.2-4 3.5-2.7 1.3-6.3 1.3Zm17.7-.7v-33.4h5v33.4Zm20.3 0v-29h-10V181h24.9v4.4h-9.9v29Zm20.4 0v-33.4h19.7v4.3h-14.6v9.6h12.4v4.2h-12.4v11h15.1v4.3Zm36.4.7q-3.5 0-6.5-1.3t-5.4-3.7l2.8-3.3q1.8 1.8 4.3 2.8 2.4 1 5 1 3 0 4.6-1.3 1.7-1.4 1.7-3.6 0-1.5-.7-2.5-.7-.9-1.9-1.5-1.2-.7-2.8-1.3l-4.7-2q-1.6-.8-3.1-2-1.6-1-2.6-2.7-1-1.7-1-4.1 0-2.6 1.4-4.7 1.4-2 3.8-3.3 2.5-1.2 5.7-1.2 3 0 5.6 1.2 2.6 1 4.4 3l-2.7 3.2q-1.5-1.3-3.4-2.2-1.9-.7-4-.7-2.5 0-4.1 1.1-1.6 1.2-1.6 3.3 0 1.4.8 2.3.8 1 2 1.6l2.7 1.2 4.6 2q2 .8 3.5 2 1.6 1.1 2.4 2.8.9 1.7.9 4.1 0 2.7-1.4 5-1.4 2.2-4 3.5-2.6 1.3-6.3 1.3Zm16.9 8.3-1.2-2.8q2.4-1 3.7-2.7 1.2-1.6 1.2-3.7l-.3-4 2.1 3.3q-.4.5-1 .7-.6.2-1.3.2-1.3 0-2.4-.8-1-.9-1-2.5 0-1.5 1-2.4 1.1-.8 2.5-.8 2 0 3 1.4 1 1.5 1 4 0 3.5-2 6.2-1.9 2.7-5.3 4Zm29.2-9v-12.7l-10-20.7h5.4l4 9 1.5 3.7 1.6 3.6h.2l1.6-3.6q.9-1.8 1.6-3.7l4-9h5.3l-10 20.8v12.6Zm30.8.7q-4.3 0-7.6-2.2-3.2-2-5-6-2-4-2-9.3 0-5.4 2-9.2 1.8-3.9 5-6 3.3-2 7.6-2t7.5 2q3.3 2.1 5.2 6 1.8 3.8 1.8 9.2 0 5.4-1.8 9.3-1.9 4-5.2 6-3.2 2.2-7.5 2.2Zm0-4.5q2.8 0 4.9-1.6 2-1.6 3.2-4.5 1.1-3 1.1-6.9 0-4-1.1-6.8-1.2-2.8-3.2-4.4-2.1-1.5-5-1.5-2.7 0-4.8 1.5-2.1 1.6-3.3 4.4-1.1 2.8-1.1 6.8t1.1 6.9q1.2 3 3.3 4.5 2 1.6 4.9 1.6Zm33.4 4.5q-2.8 0-5-.8-2.3-.8-4-2.5-1.6-1.7-2.5-4.6-.9-2.8-.9-6.7V181h5.1v19.7q0 3.8 1 6 .9 2 2.6 3 1.6.9 3.6.9 2.2 0 3.9-1 1.7-.8 2.6-3 1-2.1 1-5.9V181h4.9v19.5q0 4-.9 6.8t-2.6 4.5q-1.6 1.7-3.9 2.5-2.2.8-5 .8Zm20.6-.7v-33.4h11q3.4 0 6 1 2.8.8 4.4 3 1.6 2.1 1.6 5.7 0 3.4-1.6 5.7-1.6 2.2-4.3 3.4-2.7 1-6.2 1H485v13.6Zm5.2-17.7h5.1q3.7 0 5.7-1.5 1.9-1.5 1.9-4.5t-2-4.3q-1.9-1.3-5.6-1.3h-5.1Zm13.2 17.7-8.4-14.9 3.8-3 10.3 18Zm30.4.7q-3.5 0-6.5-1.3t-5.4-3.7l2.8-3.3q1.8 1.8 4.2 2.8 2.5 1 5 1 3 0 4.7-1.3 1.7-1.4 1.7-3.6 0-1.5-.7-2.5-.7-.9-2-1.5-1.1-.7-2.7-1.3l-4.7-2q-1.6-.8-3.1-2-1.6-1-2.6-2.7-1-1.7-1-4.1 0-2.6 1.4-4.7 1.4-2 3.8-3.3 2.5-1.2 5.7-1.2 3 0 5.6 1.2 2.6 1 4.4 3l-2.7 3.2q-1.6-1.3-3.4-2.2-1.9-.7-4-.7-2.5 0-4.1 1.1-1.6 1.2-1.6 3.3 0 1.4.8 2.3.8 1 2 1.6l2.7 1.2 4.6 2q2 .8 3.5 2 1.5 1.1 2.4 2.8.9 1.7.9 4.1 0 2.7-1.4 5-1.4 2.2-4 3.5-2.6 1.3-6.3 1.3Zm23.6-.7v-29h-10V181h25v4.4h-10v29Zm32 .7q-4.4 0-7.6-2.2-3.3-2-5.2-6-1.8-4-1.8-9.3 0-5.4 1.8-9.2 1.9-3.9 5.2-6 3.2-2 7.5-2t7.6 2q3.2 2.1 5 6 2 3.8 2 9.2 0 5.4-2 9.3-1.8 4-5 6-3.3 2.2-7.6 2.2Zm0-4.5q2.7 0 4.8-1.6 2-1.6 3.2-4.5 1.2-3 1.2-6.9 0-4-1.2-6.8-1.1-2.8-3.2-4.4-2-1.5-4.9-1.5-2.8 0-4.9 1.5-2 1.6-3.2 4.4-1.2 2.8-1.2 6.8t1.2 6.9q1.1 3 3.2 4.5 2.1 1.6 5 1.6Zm21 3.8v-33.4h11q3.4 0 6.1 1 2.7.8 4.3 3 1.6 2.1 1.6 5.7 0 3.4-1.6 5.7-1.6 2.2-4.3 3.4-2.7 1-6.2 1h-5.7v13.6Zm5.2-17.7h5.1q3.8 0 5.7-1.5 2-1.5 2-4.5t-2-4.3q-2-1.3-5.7-1.3h-5.1Zm13.2 17.7-8.4-14.9 3.8-3 10.3 18Zm16.1 0v-12.7l-10-20.7h5.5l4 9 1.4 3.7 1.6 3.6h.3l1.6-3.6 1.5-3.7 4-9h5.3L645 202v12.6Zm16.5.7q-1.4 0-2.4-1t-1-2.6q0-1.7 1-2.6 1-1 2.4-1 1.5 0 2.4 1 1 1 1 2.6 0 1.5-1 2.5t-2.4 1Z" style="text-transform:uppercase"/>
  <path fill="#d0d0d0" d="M756.3 9.8H784l-81 205.4h-27.8l81-205.4Zm40 147 105-44.3-105-44.3V28.3l152.4 65.8v36.8l-152.4 65.8v-39.9Z"/>
</svg>
