<svg xmlns="http://www.w3.org/2000/svg" viewBox="0 0 130 23">
  <path fill="#33A9FD" fill-rule="evenodd" d="M26.6 22.6h-7.3L13 .4h7.3l6.3 22.2ZM14 22.5H6.6L.1.5h7.3l6.5 22Zm15.8-.8 1.7-6c1 .9 2 1.3 3.4 1.3 1.7 0 3.3-.8 4.5-2 .1-.2.4-.2.5 0l3.6 3v.5c-2 2.4-4.9 4-9 4a14 14 0 0 1-4.7-.8ZM34.2 6 35.8.5c5.9.9 8.7 5.8 8.7 11.6v1c0 .2-.2.4-.4.4h-12l1-3.7h4.4C37.2 7.6 36 6.2 34.2 6Z" opacity=".6"/>
  <path fill="#33A9FD" fill-rule="evenodd" d="M13.9 22.5H6.6L.1.5 6.7 22 12.9.4h7.3l-3.6 12.5 2.8 9.3 4.2-14.7c1.2-4.2 5-7 9.4-7l-6.3 22.1h-7.5l-2.7-9.3-2.6 9.2Zm35-3.5 1-1.5c.2-.2.4-.2.6 0 2.1 1.4 4.4 2.2 6.7 2.2 2.4 0 4.2-1.2 4.2-3.1v-.1c0-2-2.4-2.8-5-3.5-3.2-1-6.8-2-6.8-5.7 0-3.5 3-5.8 7-5.8 2.3 0 4.9.8 6.9 2 .2 0 .2.4.1.5l-1 1.7h-.5c-1.8-1-3.8-1.7-5.7-1.7-2.3 0-3.9 1.3-3.9 3 0 2 2.5 2.7 5.2 3.5 3.2.9 6.5 2 6.5 5.7 0 3.9-3.1 6-7.2 6a14 14 0 0 1-8-2.7.4.4 0 0 1-.1-.5Zm33.7-4.5v-1.6c0-.1-.1-.3-.3-.3a21 21 0 0 0-5.6-.8c-3.8 0-6 1.6-6 4 0 2.6 2.4 4 5.2 4 3.7 0 6.7-2.1 6.7-5.3ZM67.7 16c0-4.3 3.5-6.5 8.7-6.5 2.6 0 4.4.3 6.2.8v-.6c0-3.6-2.2-5.4-6-5.4-2.3 0-4 .5-5.8 1.2-.2 0-.4 0-.5-.2l-.7-1.7c0-.2 0-.5.2-.5 2.2-1 4.2-1.5 7-1.5 3 0 5.2.7 6.6 2.2 1.4 1.4 2.1 3.3 2.1 5.9v11.8l-.3.4h-2.3a.4.4 0 0 1-.3-.4v-2.6a9 9 0 0 1-7.3 3.4c-3.8 0-7.6-2.1-7.6-6.2ZM91.3 1.9c.1 0 .3 0 .3.2l6.7 16.4L105.1 2c0-.2.2-.2.3-.2h2.5c.2 0 .4.2.3.5l-8.5 19.4-.3.2h-2.3l-.3-.2-8.4-19.4c0-.3.1-.6.4-.5h2.5Zm35.5 8.8c-.3-3.6-2.4-6.7-6.4-6.7-3.5 0-6.1 2.8-6.6 6.7h13Zm-5.8 9c2.6 0 4.5-1 6-2.5.2-.2.4-.2.6 0l1.3 1c.2.2.2.5 0 .7-2 2-4.3 3.4-8 3.4a10 10 0 0 1-10.1-10.4c0-5.8 4.1-10.5 9.7-10.5 6 0 9.4 4.8 9.4 10.6v.7c0 .2-.2.4-.4.4h-15.7a7 7 0 0 0 7.2 6.6Z"/>
</svg>
