<svg xmlns="http://www.w3.org/2000/svg" viewBox="0 0 209 221">
  <path fill="currentColor" fill-rule="evenodd" d="M6.2 59.7a2.5 2.5 0 1 0-3.4 3.6 2.5 2.5 0 0 0 3.4-3.6m11-12c-1-1-2.6-1-3.5 0-1 1-1 2.7 0 3.6a2.5 2.5 0 0 0 3.5-3.6m13-13a2.5 2.5 0 1 0-3.4 3.6 2.5 2.5 0 0 0 3.4-3.6m12-13c-1-1-2.6-1-3.5 0a2.5 2.5 0 1 0 3.5 0m13-13c-1-1-2.6-1-3.5 0a2.5 2.5 0 1 0 3.5 0M64.4.8a42 42 0 0 1-1.8-.6c.6.5 1.2.7 1.8.6M4.2 82.7a2.5 2.5 0 1 0-3.4 3.6 2.5 2.5 0 0 0 3.4-3.6m12-12a2.5 2.5 0 0 0-3.4 3.6 2.5 2.5 0 0 0 3.4-3.6m13-13a2.5 2.5 0 1 0-3.4 3.6 2.5 2.5 0 0 0 3.4-3.6m12-13c-1-1-2.6-1-3.5 0a2.5 2.5 0 1 0 3.5 0m12-12c-1-1-2.6-1-3.5 0-1 1-1 2.7 0 3.6a2.5 2.5 0 1 0 3.5-3.6m11-13a2.5 2.5 0 1 0-3.4 3.6 2.5 2.5 0 0 0 3.4-3.6m13-14a2.5 2.5 0 1 0-3.4 3.6 2.5 2.5 0 1 0 3.4-3.6M4.1 109.2c1.2-1 1.2-2.6-.1-3.5a3.9 3.9 0 0 0-4-.3l1.5 4.6c1 0 2-.2 2.6-.8m12.1-15.5a2.5 2.5 0 1 0-3.4 3.6 2.5 2.5 0 0 0 3.4-3.6m12-13a2.5 2.5 0 1 0-3.4 3.6 2.5 2.5 0 0 0 3.4-3.6m11-13a2.5 2.5 0 0 0-3.4 3.6c1 1 2.6 1 3.5 0 1-1 1-2.7 0-3.6m12.9-13a2.5 2.5 0 1 0-3.4 3.6 2.5 2.5 0 0 0 3.4-3.6m12-12c-1-1-2.6-1-3.5 0a2.5 2.5 0 1 0 3.5 0m12-13c-1-1-2.6-1-3.5 0a2.5 2.5 0 1 0 3.5 0m11-13a2.5 2.5 0 1 0-3.4 3.6 2.5 2.5 0 0 0 3.4-3.6M100 7.5 97 7c0 .2.2.3.3.4a2 2 0 0 0 2.7.1M14.2 116.7a2.5 2.5 0 1 0-3.4 3.6 2.5 2.5 0 0 0 3.4-3.6m12-13c-1-1-2.6-1-3.5 0-1 1-1 2.7 0 3.6a2.5 2.5 0 1 0 3.5-3.6m13-13a2.5 2.5 0 1 0-3.4 3.6 2.5 2.5 0 0 0 3.4-3.6m12-12c-1-1-2.6-1-3.5 0-1 1-1 2.7 0 3.6a2.5 2.5 0 0 0 3.5-3.6m11-13a2.5 2.5 0 0 0-3.4 3.6c1 1 2.6 1 3.5 0 1-1 1-2.7 0-3.6m12.9-13a2.5 2.5 0 1 0-3.4 3.6 2.5 2.5 0 1 0 3.4-3.6m12-12a2.5 2.5 0 1 0-3.4 3.6 2.5 2.5 0 0 0 3.4-3.6m12-14c-1-1-2.6-1-3.5 0a2.5 2.5 0 1 0 3.6 3.5c1-1 1-2.6 0-3.5m11.9-12c-1-1-2.6-1-3.5 0-1 1-1 2.7 0 3.6a2.5 2.5 0 0 0 3.5-3.6M13.3 144.2c1-1 1-2.6-.2-3.5a3 3 0 0 0-3.9 0l-.2.4 1.4 3.8c1 .3 2.1 0 2.9-.7m12.9-15.5a2.5 2.5 0 1 0-3.4 3.6 2.5 2.5 0 0 0 3.4-3.6m11-14a2.5 2.5 0 1 0-3.4 3.6 2.5 2.5 0 0 0 3.4-3.6m12-12c-1-1-2.6-1-3.5 0-1 1-1 2.7 0 3.6a2.5 2.5 0 0 0 3.5-3.6m13-13c-1-1-2.6-1-3.5 0a2.5 2.5 0 1 0 3.6 3.5c1-1 1-2.6 0-3.5m11.9-14c-1-1-2.6-1-3.5 0a2.5 2.5 0 1 0 3.5 0m13-13a2.5 2.5 0 1 0-3.4 3.6 2.5 2.5 0 0 0 3.4-3.6m11-13a2.5 2.5 0 1 0-3.4 3.6 2.5 2.5 0 0 0 3.4-3.6m11-12a2.5 2.5 0 1 0-3.4 3.6 2.5 2.5 0 0 0 3.4-3.6m13-13c-1-1-2.6-1-3.5 0-1 1-1 2.7 0 3.6a2.5 2.5 0 1 0 3.5-3.6m10.8-9.8-3-1.1.5.8a2 2 0 0 0 2.5.3M23.2 151.7a2.5 2.5 0 1 0-3.4 3.6 2.5 2.5 0 0 0 3.4-3.6m14-14a2.5 2.5 0 1 0-3.4 3.6 2.5 2.5 0 0 0 3.4-3.6m11-11a2.5 2.5 0 1 0-3.4 3.6 2.5 2.5 0 0 0 3.4-3.6m13-14a2.5 2.5 0 1 0-3.4 3.6 2.5 2.5 0 0 0 3.4-3.6m11-13c-1-1-2.6-1-3.5 0-1 1-1 2.7 0 3.6a2.5 2.5 0 0 0 3.5-3.6m13-12c-1-1-2.6-1-3.5 0a2.5 2.5 0 1 0 3.5 0m12-13a2.5 2.5 0 1 0-3.4 3.6 2.5 2.5 0 0 0 3.4-3.6m12-13a2.5 2.5 0 1 0-3.4 3.6 2.5 2.5 0 0 0 3.4-3.6m12-12a2.5 2.5 0 1 0-3.4 3.6 2.5 2.5 0 0 0 3.4-3.6m11-14a2.5 2.5 0 1 0-3.4 3.6 2.5 2.5 0 0 0 3.4-3.6m14-13c-1-1-2.6-1-3.5 0a2.5 2.5 0 1 0 3.5 0m-111 139a2.5 2.5 0 1 0-3.4 3.6 2.5 2.5 0 0 0 3.4-3.6m12-13c-1-1-2.6-1-3.5 0a2.5 2.5 0 1 0 3.5 0m13-13c-1-1-2.6-1-3.5 0a2.5 2.5 0 1 0 3.5 0m11-13a2.5 2.5 0 1 0-3.4 3.6 2.5 2.5 0 0 0 3.4-3.6m13-12a2.5 2.5 0 0 0-3.4 3.6 2.5 2.5 0 0 0 3.4-3.6m12-13a2.5 2.5 0 1 0-3.4 3.6 2.5 2.5 0 0 0 3.4-3.6m13-13a2.5 2.5 0 1 0-3.4 3.6 2.5 2.5 0 0 0 3.4-3.6m10-13a2.5 2.5 0 1 0-3.4 3.6 2.5 2.5 0 0 0 3.4-3.6m13-12c-1-1-2.6-1-3.5 0-1 1-1 2.7 0 3.6a2.5 2.5 0 1 0 3.5-3.6m12-13a2.5 2.5 0 1 0-3.4 3.6 2.5 2.5 0 0 0 3.4-3.6m13-13a2.5 2.5 0 1 0-3.4 3.6 2.5 2.5 0 0 0 3.4-3.6m-110 137c-1-1-2.6-1-3.5 0a2.5 2.5 0 1 0 3.5 0m11-12c-1-1-2.6-1-3.5 0a2.5 2.5 0 1 0 3.5 0m13-13a2.5 2.5 0 1 0-3.4 3.6 2.5 2.5 0 0 0 3.4-3.6m11-13a2.5 2.5 0 1 0-3.4 3.6 2.5 2.5 0 0 0 3.4-3.6m12-12a2.5 2.5 0 0 0-3.4 3.6c1 1 2.6 1 3.5 0 1-1 1-2.7 0-3.6m12.9-13a2.5 2.5 0 1 0-3.4 3.6 2.5 2.5 0 0 0 3.4-3.6m12-13c-1-1-2.6-1-3.5 0a2.5 2.5 0 1 0 3.6 3.5c1-1 1-2.6 0-3.5m11.9-12c-1-1-2.6-1-3.5 0a2.5 2.5 0 1 0 3.5 0m12-14a2.5 2.5 0 1 0-3.4 3.6 2.5 2.5 0 0 0 3.4-3.6m13-13a2.5 2.5 0 1 0-3.4 3.6 2.5 2.5 0 0 0 3.4-3.6m11-12a2.5 2.5 0 1 0-3.4 3.6 2.5 2.5 0 0 0 3.4-3.6m-109 138a2.5 2.5 0 1 0-3.4 3.6 2.5 2.5 0 0 0 3.4-3.6m13-13a2.5 2.5 0 1 0-3.4 3.6 2.5 2.5 0 0 0 3.4-3.6m10-13a2.5 2.5 0 1 0-3.4 3.6 2.5 2.5 0 0 0 3.4-3.6m13-13c-1-1-2.6-1-3.5 0-1 1-1 2.7 0 3.6 1 1 2.7 1 3.6 0 1-1 1-2.7 0-3.6m11.9-12a2.5 2.5 0 1 0-3.4 3.6 2.5 2.5 0 0 0 3.4-3.6m11-13a2.5 2.5 0 1 0-3.4 3.6 2.5 2.5 0 0 0 3.4-3.6m13-13c-1-1-2.6-1-3.5 0-1 1-1 2.7 0 3.6a2.5 2.5 0 1 0 3.5-3.6m11-13a2.5 2.5 0 1 0-3.4 3.6 2.5 2.5 0 0 0 3.4-3.6m13-13a2.5 2.5 0 1 0-3.4 3.6 2.5 2.5 0 0 0 3.4-3.6m12-12a2.5 2.5 0 1 0-3.4 3.6 2.5 2.5 0 0 0 3.4-3.6m13-13a2.5 2.5 0 1 0-3.4 3.6 2.5 2.5 0 0 0 3.4-3.6m-111 139a2.5 2.5 0 1 0-3.4 3.6 2.5 2.5 0 0 0 3.4-3.6m12-13c-1-1-2.6-1-3.5 0a2.5 2.5 0 1 0 3.5 0m13-13a2.5 2.5 0 1 0-3.4 3.6 2.5 2.5 0 0 0 3.4-3.6m11-13a2.5 2.5 0 1 0-3.4 3.6 2.5 2.5 0 0 0 3.4-3.6m13-13a2.5 2.5 0 1 0-3.4 3.6 2.5 2.5 0 0 0 3.4-3.6m12-12a2.5 2.5 0 1 0-3.4 3.6 2.5 2.5 0 0 0 3.4-3.6m12-14a2.5 2.5 0 1 0-3.4 3.6 2.5 2.5 0 0 0 3.4-3.6m12-12a2.5 2.5 0 1 0-3.4 3.6 2.5 2.5 0 0 0 3.4-3.6m11-13a2.5 2.5 0 1 0-3.4 3.6 2.5 2.5 0 0 0 3.4-3.6m13-14c-1-1-2.6-1-3.5 0-1 1-1 2.7 0 3.6a2.5 2.5 0 1 0 3.5-3.6m12-11c-1-1-2.6-1-3.5 0a2.5 2.5 0 1 0 3.5 0m-110 138c-1-1-2.6-1-3.5 0a2.5 2.5 0 1 0 3.6 3.5c1-1 1-2.6 0-3.5m12.9-13a2.5 2.5 0 1 0-3.4 3.6 2.5 2.5 0 0 0 3.4-3.6m11-13c-1-1-2.6-1-3.5 0a2.5 2.5 0 1 0 3.6 3.5c1-1 1-2.6 0-3.5m12.9-12a2.5 2.5 0 1 0-3.4 3.6 2.5 2.5 0 0 0 3.4-3.6m12-13a2.5 2.5 0 1 0-3.4 3.6 2.5 2.5 0 0 0 3.4-3.6m13-14c-1-1-2.6-1-3.5 0a2.5 2.5 0 1 0 3.6 3.5c1-1 1-2.6 0-3.5m10.9-11a2.5 2.5 0 1 0-3.4 3.6 2.5 2.5 0 0 0 3.4-3.6m12-14a2.5 2.5 0 1 0-3.4 3.6 2.5 2.5 0 0 0 3.4-3.6m12-13a2.5 2.5 0 1 0-3.4 3.6 2.5 2.5 0 0 0 3.4-3.6m11-12a2.5 2.5 0 0 0-3.4 3.6c1 1 2.6 1 3.5 0 1-1 1-2.7 0-3.6m9.4-12.9a2.5 2.5 0 0 0 3.6 3.4c.5-.5.7-1 .7-1.7l-.9-1.9c-1-.9-2.5-.8-3.4.2M90.2 212.9a3.5 3.5 0 0 0-3.9 0l-.3.4 5 1.4c0-.7-.2-1.3-.8-1.8m13-13.2a2.5 2.5 0 1 0-3.4 3.6 2.5 2.5 0 0 0 3.4-3.6m11-13a2.5 2.5 0 1 0-3.4 3.6 2.5 2.5 0 0 0 3.4-3.6m11-13c-1-1-2.6-1-3.5 0a2.5 2.5 0 1 0 3.5 0m14-12c-1-1-2.6-1-3.5 0-1 1-1 2.7 0 3.6a2.5 2.5 0 1 0 3.5-3.6m12-13a2.5 2.5 0 1 0-3.4 3.6 2.5 2.5 0 0 0 3.4-3.6m13-13a2.5 2.5 0 1 0-3.4 3.6c1 1 2.6 1 3.5 0 1-1 1-2.7 0-3.6m10.9-13a2.5 2.5 0 1 0-3.4 3.6 2.5 2.5 0 0 0 3.4-3.6m12-12a2.5 2.5 0 1 0-3.4 3.6 2.5 2.5 0 0 0 3.4-3.6m12-13c-1-1-2.6-1-3.5 0a2.5 2.5 0 0 0 3.6 3.5c1-1 1-2.6 0-3.5m-85.1 114c-1-1-2.6-1-3.5 0a2.5 2.5 0 0 0 3.6 3.5c1-1 1-2.6 0-3.5m10.9-13a2.5 2.5 0 1 0-3.4 3.6 2.5 2.5 0 0 0 3.4-3.6m13-13a2.5 2.5 0 1 0-3.4 3.6 2.5 2.5 0 0 0 3.4-3.6m11-13a2.5 2.5 0 1 0-3.4 3.6 2.5 2.5 0 0 0 3.4-3.6m13-14a2.5 2.5 0 1 0-3.4 3.6 2.5 2.5 0 0 0 3.4-3.6m12-13c-1-1-2.6-1-3.5 0a2.5 2.5 0 1 0 3.5 0m12-13a2.5 2.5 0 1 0-3.4 3.6 2.5 2.5 0 0 0 3.4-3.6m12-12a2.5 2.5 0 1 0-3.4 3.6 2.5 2.5 0 0 0 3.4-3.6m9-9.4c.4.4.8.6 1.3.7v-5a2 2 0 0 0-1.4.8c-.8 1-.8 2.6.1 3.5m-85.6 109.3h1.8a2 2 0 0 0-1.8 0m14.6-11.9a2.5 2.5 0 1 0-3.4 3.6 2.5 2.5 0 0 0 3.4-3.6m13-12a2.5 2.5 0 0 0-3.4 3.6 2.5 2.5 0 0 0 3.4-3.6m12-14a2.5 2.5 0 1 0-3.4 3.6 2.5 2.5 0 0 0 3.4-3.6m12-12a2.5 2.5 0 1 0-3.4 3.6 2.5 2.5 0 0 0 3.4-3.6m13-13c-1-1-2.6-1-3.5 0-1 1-1 2.7 0 3.6 1 1 2.7 1 3.6 0 1-1 1-2.7 0-3.6m10.9-13a2.5 2.5 0 1 0-3.4 3.6 2.5 2.5 0 0 0 3.4-3.6m9.2-10 .3.3.6-5a2 2 0 0 0-1 .8 3.4 3.4 0 0 0 0 4M156.7 205c-1 1-1 2.9.1 4l4.2-3a3 3 0 0 0-.7-1.2c-1-1.1-2.6-1-3.6.1m16.5-12.2a2.5 2.5 0 1 0-3.4 3.6 2.5 2.5 0 0 0 3.4-3.6m7.6-8.4a2.5 2.5 0 0 0 3.4-3.6c-1-1-2.6-1-3.5 0-1 1-1 2.7 0 3.6m11.8-16.5c-.7 1-.7 2.7.1 3.7l.6.5 1.8-4.6c-.8-.6-1.8-.5-2.5.4"/>
</svg>