<svg xmlns="http://www.w3.org/2000/svg" viewBox="0 0 333 345">
  <path fill="currentColor" fill-rule="evenodd" d="M8 44.8a3 3 0 1 0-4 4.4 3 3 0 0 0 4-4.4m13-14a3 3 0 1 0-4 4.4 3 3 0 0 0 4-4.4m14-15a3 3 0 1 0-4 4.4 3 3 0 0 0 4-4.4M49 5.7c.6-.3.9-.7 1-1-2 .3-4 .8-6 1.3 1.5.6 3.7.5 5-.3M6 69.8a3 3 0 0 0-4.2.1 3 3 0 1 0 4.4 4.2 3 3 0 0 0-.1-4.3m13.9-13a3 3 0 1 0-4 4.4 3 3 0 0 0 4-4.4m14-14a3 3 0 1 0-4 4.4 3 3 0 0 0 4-4.4m13-16a3 3 0 0 0-4 4.4 3 3 0 1 0 4-4.4m14-13a3 3 0 1 0-4 4.4 3 3 0 0 0 4-4.4m9-11.4a4 4 0 0 0 4.2 0c1-.7 1-1.6.4-2.4l-5.3.1c-.6.8-.3 1.7.6 2.3M5 96.8a3 3 0 1 0-4 4.4 3 3 0 0 0 4-4.4m15-14a3 3 0 1 0-4 4.4 3 3 0 0 0 4-4.4m12-15a3 3 0 1 0-4 4.4 3 3 0 0 0 4-4.4m15-15a3 3 0 1 0-4 4.4 3 3 0 0 0 4-4.4m12-13a3 3 0 1 0 .2 4.3 3 3 0 0 0-.1-4.3m12.9-15a3 3 0 1 0-4 4.4 3 3 0 0 0 4-4.4m15-15a3 3 0 1 0-4.1 4.4 3 3 0 0 0 4.2-4.4m-69.1 99a3 3 0 1 0-4.1 4.4 3 3 0 0 0 4.2-4.4m12.9-15a3 3 0 1 0-4 4.4 3 3 0 0 0 4-4.4m14-14a3 3 0 1 0-4 4.4 3 3 0 0 0 4-4.4m14-15a3 3 0 1 0-4 4.4 3 3 0 0 0 4-4.4m13-14a3 3 0 1 0-4 4.4 3 3 0 0 0 4-4.4m13-14a3 3 0 1 0-4 4.4 3 3 0 0 0 4-4.4m13-15a3 3 0 1 0-4 4.4 3 3 0 0 0 4-4.4m11.2-9.6c1.3.8 3.4.8 4.8.2l-3-1.2-2.9-1c-.3.7 0 1.5 1 2M29 120.8a3 3 0 0 0-4.2.1 3 3 0 0 0 4.4 4.2 3 3 0 0 0-.1-4.3m14.9-15a3 3 0 1 0-4 4.4 3 3 0 0 0 4-4.4m13-15a3 3 0 1 0-4 4.4 3 3 0 0 0 4-4.4m15-14a3 3 0 1 0-4 4.4 3 3 0 0 0 4-4.4m12-14a3 3 0 1 0-4 4.4 3 3 0 0 0 4-4.4m14-15a3 3 0 1 0-4 4.4 3 3 0 0 0 4-4.4m13-14a3 3 0 0 0-4.2.1 3 3 0 1 0 4.4 4.2 3 3 0 0 0-.1-4.3M121 25a3.2 3.2 0 0 0 5-.6c-1.5-1.4-3-2.9-4.8-4.4l-.3.3a3.5 3.5 0 0 0 .1 4.8M42 132.8a3 3 0 1 0 .1 4.2 3 3 0 0 0 0-4.2m12.9-14a3 3 0 1 0-4 4.4 3 3 0 0 0 4-4.4m15-15a3 3 0 0 0-4.2.2 3 3 0 1 0 4.4 4.1 3 3 0 0 0-.1-4.3m12.9-15a3 3 0 1 0-4 4.4 3 3 0 0 0 4-4.4m14-14a3 3 0 1 0-4 4.4 3 3 0 0 0 4-4.4m13-16a3 3 0 1 0-4 4.4 3 3 0 0 0 4-4.4m15-14a3 3 0 1 0-4 4.4 3 3 0 0 0 4-4.4m8.7-7.8c.6 1 1.5 1.3 2.3.7-.7-1.9-1.6-3.8-2.5-5.7-.7 1.4-.7 3.7.2 5M55 144.8a3 3 0 1 0-4.1 4.4 3 3 0 0 0 4.2-4.4m12.9-15a3 3 0 1 0-4 4.4 3 3 0 0 0 4-4.4m13-15a3 3 0 1 0-4 4.4 3 3 0 0 0 4-4.4m14-14a3 3 0 0 0-4 4.4 3 3 0 0 0 4.2-.1 3 3 0 0 0-.1-4.3m13.9-14a3 3 0 0 0-4.1 4.4 3 3 0 0 0 4.2-4.4m13.9-14a3 3 0 0 0-4 4.4 3 3 0 0 0 4-4.4m13-15a3 3 0 0 0-4.2.1 3 3 0 0 0 4.4 4.2 3 3 0 0 0-.1-4.3m-70.1 98a3 3 0 0 0-4 4.4 3 3 0 0 0 4-4.4m15-14a3 3 0 1 0-4 4.4 3 3 0 0 0 4-4.4m14-15a3 3 0 1 0-4 4.4 3 3 0 0 0 4-4.4m14-14a3 3 0 1 0-4 4.4 3 3 0 0 0 4-4.4m13-15a3 3 0 0 0-4.2.1 3 3 0 1 0 4.4 4.2 3 3 0 0 0-.1-4.3m11.9-15a3 3 0 0 0-4.2.1 3 3 0 0 0 .1 4.3 3 3 0 1 0 4.2-4.4M145.7 70a4 4 0 0 0 0 4.2c.7.8 1.5 1 2.2.7l-.4-5.9a2 2 0 0 0-1.8 1M79 167.8a3 3 0 1 0-4 4.4 3 3 0 0 0 4-4.4m13-16a3 3 0 1 0-4 4.4 3 3 0 0 0 4-4.4m15-13a3 3 0 1 0-4 4.4 3 3 0 0 0 4-4.4m13-15a3 3 0 0 0-4 4.4 3 3 0 0 0 4-4.4m14-15a3 3 0 1 0-4 4.4 3 3 0 0 0 4-4.4m13-13a3 3 0 1 0-4 4.4 3 3 0 0 0 4-4.4m-56 83a3 3 0 0 0-4.2.1 3 3 0 1 0 4.2-.1m15-15a3 3 0 1 0-4 4.4 3 3 0 0 0 4-4.4m13-14a3 3 0 0 0-4.2.1 3 3 0 1 0 4.2-.1m14-14a3 3 0 1 0-4 4.4 3 3 0 0 0 4-4.4m13-15a3 3 0 1 0-4.1 4.3 3 3 0 0 0 4.2-4.3m13.9-14a3 3 0 1 0-4.1 4.4 3 3 0 0 0 4.2-4.4m10.3-9a42 42 0 0 1-1.8-.6c.6.5 1.2.7 1.8.6m-66.4 92a3 3 0 1 0-4 4.4 3 3 0 0 0 4-4.4m13-14a3 3 0 0 0-4 4.4 3 3 0 0 0 4-4.4m14-14a3 3 0 1 0-4 4.4 3 3 0 0 0 4-4.4m14-15a3 3 0 1 0-4.1 4.4 3 3 0 0 0 4.2-4.4m13.9-14a3 3 0 0 0-4.2.1 3 3 0 0 0 .1 4.3 3 3 0 1 0 4.2-4.4m11.9-14a3 3 0 1 0-4 4.4 3 3 0 0 0 4-4.4m15-15a3 3 0 1 0-4 4.4 3 3 0 1 0 4-4.4M104 219c1.4-1.1 1.3-3-.2-4.2-1.3-1-3.3-1-4.8-.3l1.8 5.5c1.1 0 2.3-.2 3.2-1m13-17.2a3 3 0 1 0-4 4.4 3 3 0 0 0 4-4.4m14-15a3 3 0 1 0-4 4.4 3 3 0 0 0 4-4.4m12-14a3 3 0 0 0-4 4.4 3 3 0 0 0 4.1-4.4m14.9-15a3 3 0 1 0-4 4.4 3 3 0 0 0 4-4.4m13-13a3 3 0 1 0-4.1 4.3 3 3 0 0 0 4.2-4.3m12.9-15a3 3 0 1 0-4.1 4.4 3 3 0 0 0 4.2-4.4m12.9-15a3 3 0 1 0-4 4.4 3 3 0 0 0 4-4.4m14-9.3-3-.5c0 .2.2.3.3.4a2 2 0 0 0 2.7.1m-96 121.3a3 3 0 1 0-4 4.4 3 3 0 0 0 4-4.4m13-13a3 3 0 0 0-4.2.1 3 3 0 1 0 4.2-.1m15-15a3 3 0 1 0-4 4.4 3 3 0 0 0 4-4.4m13-14a3 3 0 0 0-4.2.1 3 3 0 1 0 4.2-.1m13-15a3 3 0 0 0-4 4.4 3 3 0 1 0 4.1-4.4m13.9-14a3 3 0 1 0-4 4.4 3 3 0 1 0 4-4.4m13-14a3 3 0 1 0-4 4.4 3 3 0 0 0 4-4.4m14-15a3 3 0 0 0-4.2.1 3 3 0 1 0 4.4 4.2 3 3 0 0 0-.1-4.3m13.9-14a3 3 0 0 0-4.2.1 3 3 0 1 0 4.2-.1M114.1 259a2.8 2.8 0 0 0-.1-4.2 3.5 3.5 0 0 0-4.7.1l-.3.4 1.7 4.6c1.2.3 2.5 0 3.4-.8m13.9-18.3a3 3 0 1 0-4 4.4 3 3 0 0 0 4-4.4m13-15a3 3 0 1 0-4 4.4 3 3 0 0 0 4-4.4m13-14a3 3 0 0 0-4.1 4.4 3 3 0 0 0 4.2-4.4m14.9-15a3 3 0 0 0-4.2.1 3 3 0 1 0 4.4 4.2 3 3 0 0 0-.1-4.3m12.9-15a3 3 0 1 0-4.1 4.4 3 3 0 0 0 4.2-4.4m13.9-14a3 3 0 1 0-4 4.4 3 3 0 0 0 4-4.4m13-16a3 3 0 1 0-4 4.4 3 3 0 0 0 4-4.4m13-13a3 3 0 1 0-4 4.4 3 3 0 0 0 4-4.4m14-15a3 3 0 0 0-4.2.1 3 3 0 1 0 4.2-.1m12-9.9-3-1.1.5.8a2 2 0 0 0 2.5.3M125 266.8a3 3 0 1 0-4 4.4 3 3 0 0 0 4-4.4m16-16a3 3 0 1 0-4 4.4 3 3 0 0 0 4-4.4m12-13a3 3 0 1 0-4 4.4 3 3 0 0 0 4-4.4m14-15a3 3 0 1 0-4 4.4 3 3 0 0 0 4-4.4m13-14a3 3 0 0 0-4.2.2 3 3 0 1 0 4.2-.1m15-14.1a3 3 0 1 0-4.1 4.4 3 3 0 0 0 4.2-4.4m12.9-15a3 3 0 1 0-4 4.4 3 3 0 0 0 4-4.4m14-14a3 3 0 1 0-4 4.4 3 3 0 0 0 4-4.4m13-14a3 3 0 1 0-4 4.4 3 3 0 0 0 4-4.4m12-15a3 3 0 1 0-4 4.4 3 3 0 0 0 4-4.4m16-15a3 3 0 1 0-4.1 4.4 3 3 0 0 0 4.2-4.4M139 277.8a3 3 0 1 0-4 4.4 3 3 0 0 0 4-4.4m13-15a3 3 0 1 0-4.1 4.3 3 3 0 0 0 4.2-4.3m13.9-13a3 3 0 1 0-4.1 4.4 3 3 0 0 0 4.2-4.4m11.9-15a3 3 0 1 0-4 4.4 3 3 0 0 0 4-4.4m16-14a3 3 0 0 0-4 4.4 3 3 0 0 0 4-4.4m12-15a3 3 0 1 0-4 4.4 3 3 0 0 0 4-4.4m15-14a3 3 0 1 0-4 4.4 3 3 0 0 0 4-4.4m12-15a3 3 0 1 0-4 4.4 3 3 0 0 0 4-4.4m14-14a3 3 0 0 0-4.2.1 3 3 0 1 0 4.2-.1m13-14a3 3 0 1 0-4 4.4 3 3 0 0 0 4-4.4m16-15a3 3 0 1 0-4 4.4 3 3 0 0 0 4-4.4m-124 155a3 3 0 1 0-4.1 4.4 3 3 0 0 0 4.2-4.4m12.9-14a3 3 0 1 0-4.1 4.4 3 3 0 0 0 4.2-4.4m12.9-14a3 3 0 1 0-4 4.4 3 3 0 0 0 4-4.4m13-15a3 3 0 1 0-4 4.4 3 3 0 0 0 4-4.4m14-13a3 3 0 0 0-4 4.4 3 3 0 0 0 4.2-.1 3 3 0 0 0-.1-4.3m13.9-15a3 3 0 1 0-4 4.4 3 3 0 0 0 4-4.4m13-15a3 3 0 0 0-4.2.1 3 3 0 1 0 4.4 4.2 3 3 0 0 0-.1-4.3m13.9-13a3 3 0 1 0-4.1 4.3 3 3 0 0 0 4.2-4.3m12.9-16a3 3 0 1 0-4 4.4 3 3 0 0 0 4-4.4m15-14a3 3 0 1 0-4 4.4 3 3 0 0 0 4-4.4m13-15a3 3 0 1 0-4 4.4 3 3 0 0 0 4-4.4m-123 156a3 3 0 1 0-4 4.4 3 3 0 0 0 4-4.4m14-15a3 3 0 1 0-4 4.4 3 3 0 0 0 4-4.4m12-14a3 3 0 1 0-4 4.4 3 3 0 0 0 4-4.4m15-15a3 3 0 0 0-4.2.1 3 3 0 0 0 .1 4.3 3 3 0 0 0 4.3-.1 3 3 0 0 0-.1-4.3m12.9-13a3 3 0 1 0-4 4.4 3 3 0 0 0 4-4.4m12-15a3 3 0 1 0-4 4.4 3 3 0 0 0 4-4.4m15-14a3 3 0 0 0-4.2.1 3 3 0 1 0 4.2-.1m13-15a3 3 0 1 0-4 4.4 3 3 0 0 0 4-4.4m14-14a3 3 0 1 0-4 4.4 3 3 0 0 0 4-4.4m13-14a3 3 0 1 0-4 4.4 3 3 0 0 0 4-4.4m15-15a3 3 0 1 0-4 4.4 3 3 0 0 0 4-4.4m-124 156a3 3 0 1 0-4 4.4 3 3 0 0 0 4-4.4m13-15a3 3 0 1 0-4.1 4.4 3 3 0 0 0 4.2-4.4m13.9-14a3 3 0 1 0-4 4.4 3 3 0 0 0 4-4.4m13-15a3 3 0 1 0-4 4.4 3 3 0 0 0 4-4.4m14-14a3 3 0 1 0-4 4.4 3 3 0 0 0 4-4.4m14-14a3 3 0 1 0-4 4.4 3 3 0 0 0 4-4.4m13-15a3 3 0 1 0-4 4.4 3 3 0 0 0 4-4.4m14-14a3 3 0 1 0-4 4.4 3 3 0 0 0 4-4.4m12-15a3 3 0 1 0-4 4.4 3 3 0 0 0 4-4.4m15-15a3 3 0 0 0-4.1 4.4 3 3 0 1 0 4.2-4.4m12.9-13a3 3 0 1 0-4.1 4.4 3 3 0 0 0 4.2-4.4M188 323.8a3 3 0 0 0-4.2.1 3 3 0 1 0 4.4 4.2 3 3 0 0 0-.1-4.3m13.9-15a3 3 0 1 0-4 4.4 3 3 0 0 0 4-4.4m12-14a3 3 0 0 0-4.2.1 3 3 0 1 0 4.4 4.2 3 3 0 0 0-.1-4.3m15.9-14a3 3 0 1 0-4 4.4 3 3 0 0 0 4-4.4m12-14a3 3 0 1 0-4 4.4 3 3 0 0 0 4-4.4m15-16a3 3 0 0 0-4.2.2 3 3 0 1 0 4.4 4 3 3 0 0 0-.1-4.2m12.9-13a3 3 0 1 0-4 4.4 3 3 0 0 0 4-4.4m13-15a3 3 0 1 0-4 4.4 3 3 0 0 0 4-4.4m13-14a3 3 0 1 0-4 4.4 3 3 0 0 0 4-4.4m13-14a3 3 0 0 0-4 4.4 3 3 0 0 0 4.1-4.4m9.7-14.8a3 3 0 0 0 4.4 4 3 3 0 0 0 .8-2l-1-2.3a3 3 0 0 0-4.2.2M201 335.9a4.5 4.5 0 0 0-4.6 0l-.4.4 6 1.4a2 2 0 0 0-1-1.8m13-15.1a3 3 0 1 0-4 4.4 3 3 0 0 0 4-4.4m13-14a3 3 0 1 0-4 4.4 3 3 0 0 0 4-4.4m13-15a3 3 0 1 0-4.1 4.4 3 3 0 0 0 4.2-4.4m14.9-14a3 3 0 0 0-4.2.1 3 3 0 1 0 4.2-.1m13-15a3 3 0 1 0-4 4.4 3 3 0 0 0 4-4.4m14-13a3 3 0 1 0-4 4.4 3 3 0 0 0 4.2-.1 3 3 0 0 0-.1-4.3m12.9-15a3 3 0 1 0-4 4.4 3 3 0 0 0 4-4.4m14-14a3 3 0 1 0-4 4.4 3 3 0 0 0 4-4.4m14-15a3 3 0 0 0-4.2.1 3 3 0 0 0 4.4 4.2 3 3 0 0 0-.1-4.3m-96.1 128a3 3 0 0 0-4.2.1 3 3 0 0 0 4.4 4.2 3 3 0 0 0-.1-4.3m12.9-14a3 3 0 1 0-4 4.4 3 3 0 0 0 4-4.4m13-15a3 3 0 1 0-4 4.4 3 3 0 0 0 4-4.4m13-14a3 3 0 1 0-4 4.4 3 3 0 0 0 4-4.4m15-16a3 3 0 1 0-4 4.4 3 3 0 0 0 4-4.4m13-14a3 3 0 1 0-4.1 4.4 3 3 0 0 0 4.2-4.4m13.9-15a3 3 0 1 0-4 4.4 3 3 0 0 0 4-4.4m13-13a3 3 0 1 0-4 4.4 3 3 0 0 0 4-4.4m10.2-10.6c.4.5.8.7 1.3.8v-6a2 2 0 0 0-1.4 1 4 4 0 0 0 .1 4.2m-95.6 122.4h1.8a2 2 0 0 0-1.8 0m16.4-12.8a3 3 0 1 0-4 4.4 3 3 0 0 0 4-4.4m14-15a3 3 0 0 0-4 4.4 3 3 0 0 0 4-4.4m13-15a3 3 0 1 0-4 4.4 3 3 0 0 0 4-4.4m14-13a3 3 0 1 0-4 4.4 3 3 0 0 0 4-4.4m14-15a3 3 0 0 0-4.1 4.4 3 3 0 0 0 4.1-4.4m13-15a3 3 0 1 0-4 4.4 3 3 0 0 0 4-4.4m10.4-10.1.3.3.6-6c-.4.2-.7.5-1 1a4.8 4.8 0 0 0 0 4.7M273.8 326a3.8 3.8 0 0 0 .2 5 127 127 0 0 0 5-3.5c-.2-.6-.4-1.1-.8-1.6a2.8 2.8 0 0 0-4.4.2m19.2-12.3a3 3 0 1 0-4 4.4 3 3 0 0 0 4-4.4m9-10.6a3 3 0 0 0 4-4.4 3 3 0 0 0-4.1 4.4m12.6-18.2a4.5 4.5 0 0 0 .1 4.4l.6.6 1.8-5.6c-.8-.7-1.8-.5-2.5.6"/>
</svg>