<svg xmlns="http://www.w3.org/2000/svg" fill="none" viewBox="0 0 400 300">
  <path fill="#5578EC" d="M202.4 273.3a121.3 121.3 0 1 0 0-242.6 121.3 121.3 0 0 0 0 242.6Z" opacity=".1"/>
  <path fill="#fff" d="m252.7 130.6-6.7 12-22.5-22.8 13.2-12.2 16 23Z"/>
  <path fill="#DCDDDD" d="M237 145.6c6.3-9.6 5.9-22.3 5.9-22.3l-16 15.3"/>
  <path stroke="#31333A" stroke-linecap="round" stroke-linejoin="round" d="m252.7 130.6-6.7 12-22.5-22.8 13.2-12.2 16 23Z"/>
  <path fill="#fff" d="m254.4 152-9.6-9.3 6.8-16s5.5 10.6 17.2-.2c12.5-11.6 14.6-5 14.6-5l-29 30.5Z"/>
  <path stroke="#31333A" stroke-linecap="round" stroke-linejoin="round" d="m251.4 152.8 36-39"/>
  <path fill="#fff" stroke="#31333A" stroke-linecap="round" stroke-linejoin="round" d="M253.1 142.6c1.9 0 3.4-1.6 3.4-3.5s-1.5-3.4-3.4-3.4-3.3 1.5-3.3 3.4c0 2 1.5 3.5 3.3 3.5Z"/>
  <path fill="#fff" d="m255.2 133 1.8-10.3 5.3 3.6-3.3 9.4"/>
  <path stroke="#31333A" stroke-linecap="round" stroke-linejoin="round" d="m255.2 133 1.8-10.3 5.3 3.6-3.3 9.4"/>
  <path stroke="#31333A" stroke-linecap="round" stroke-linejoin="round" d="m254.4 152-9.6-9.3 6.8-16s5.5 10.6 17.2-.2c12.5-11.6 14.6-5 14.6-5l-29 30.5Z"/>
  <path fill="#fff" d="M186.8 49.2c-2.9-5-4.6-15-5-15.6a47 47 0 0 0-11.8-6.4c-1 0-1.3 1.4 4.5 5.8 0 0-2.6 1.9-2.3 3l7.5 15.9 7-2.7Z"/>
  <path fill="#DCDDDD" d="M167.8 48.7c9-10.2 15.6-8.9 15.6-8.9l.6 7.4-18 2.7"/>
  <path stroke="#31333A" stroke-linecap="round" stroke-linejoin="round" d="M186.8 49.2c-2.9-5-4.6-15-5-15.6a47 47 0 0 0-11.8-6.4c-1 0-1.3 1.4 4.5 5.8 0 0-2.6 1.9-2.3 3l7.5 15.9 7-2.7Z"/>
  <path fill="#31333A" d="m135 40.7-.7-3.6s-10-6.1-12.7 7.4c-2.7 13.4 5.5 13.1-1 19-6.5 6-13.9 14.1-6.7 18.8 7.3 4.7 37.2-3 37.2-3l-5.4-20.1L135 40.7Z"/>
  <path fill="#fff" stroke="#31333A" stroke-linecap="round" stroke-linejoin="round" d="M127.7 39.3 123 50.7a7.2 7.2 0 0 0 .1 5.7 7.2 7.2 0 0 0 4.3 3.9l4 1.2a1.5 1.5 0 0 0 1.9-1l6-19a1.6 1.6 0 0 0-1.3-2l-8.7-1.1a1.5 1.5 0 0 0-1.6 1Z"/>
  <path fill="#31333A" d="M132.7 37.5c-10.7 13.7 12.6 13.8 5.1 30-7.4 16.3-5.4 24 15.6 14.7 14.8-6.5-7.6-50.8-20.8-44.7Z"/>
  <path fill="#31333A" d="M124.7 46c1.7-4.4 4.8-6 7.7-5.6 2.9.4 2.1-2.2 2.1-2.2l-5.1-1a10.6 10.6 0 0 0-4.7 8.7Z"/>
  <path fill="#fff" d="m126.4 60-1.8 14.3 12-1.2L136 55"/>
  <path fill="#DCDDDD" d="m123.6 68 8.7-6.6-5.8-1.6a50.7 50.7 0 0 0-2.9 8.2Z"/>
  <path stroke="#31333A" stroke-linecap="round" stroke-linejoin="round" d="m126.4 60-1.8 14.3 12-1.2L136 55"/>
  <path fill="#fff" d="M132 53a5.3 5.3 0 0 1 1.4-1.3c1.8-1.3 4-1.2 5 .3.9 1.4 0 3.5-1.8 4.8l-1.2.6"/>
  <path stroke="#31333A" stroke-linecap="round" stroke-linejoin="round" d="M132 53a5.3 5.3 0 0 1 1.4-1.3c1.8-1.3 4-1.2 5 .3.9 1.4 0 3.5-1.8 4.8l-1.2.6"/>
  <path fill="#fff" d="m126.6 47.3-.9 2.6c-2.6.5 0 2 0 2"/>
  <path stroke="#31333A" stroke-linecap="round" stroke-linejoin="round" d="m126.6 47.3-.9 2.6c-2.6.5 0 2 0 2"/>
  <path fill="#31333A" d="M124.3 49a.7.7 0 0 1-.6-.9l.1-.6a.6.6 0 0 1 .5-.5.6.6 0 0 1 .3 0 .7.7 0 0 1 .5.8v.6a.6.6 0 0 1-.3.4.6.6 0 0 1-.5.1Z"/>
  <path stroke="#31333A" stroke-linecap="round" stroke-linejoin="round" d="m122.8 45.5 3 .5"/>
  <path fill="#31333A" d="M128.4 49.5a.7.7 0 0 1-.5-.8l.1-.6a.6.6 0 0 1 .5-.5.6.6 0 0 1 .3 0 .7.7 0 0 1 .5.7l-.1.7a.6.6 0 0 1-.3.4.6.6 0 0 1-.5 0Z"/>
  <path stroke="#31333A" stroke-linecap="round" stroke-linejoin="round" d="m128 46 3 .6"/>
  <path fill="#B5B5B6" d="m125.4 53.2 2.8-.8c1.4 2.9-2.7 3.5-2.8.8Z"/>
  <path stroke="#31333A" stroke-linecap="round" stroke-linejoin="round" d="m135.4 54.3 1.7-1.8m-.7 2.5v-1.6"/>
  <path fill="#DCDDDD" d="M158.6 65.4c.6-.4 23 2.9 23 2.9l-7.1-23c4.4-5.5 9.7-5.8 9.7-5.8l19 37c9.4 16.3-13.9 14.2-20.4 15.8L147.3 91l11.3-25.6Z"/>
  <path fill="#fff" stroke="#31333A" stroke-linecap="round" stroke-linejoin="round" d="M168.5 59.2c3.4-2.6 3.2-8.5-.3-13-3.6-4.5-9.2-6-12.6-3.3-3.4 2.7-3.2 8.5.3 13 3.6 4.5 9.2 6 12.6 3.3Zm33.8 52.4c3.3-2.7 3.2-8.5-.4-13s-9.2-6-12.6-3.3c-3.4 2.7-3.2 8.5.4 13 3.5 4.5 9.2 6 12.6 3.3Zm-38.9 12.8c3.4-2.7 3.2-8.5-.4-13-3.5-4.5-9.2-6-12.5-3.3-3.4 2.7-3.3 8.5.3 13 3.6 4.5 9.2 6 12.6 3.3ZM190 126c3.4-2.7 3.3-8.5-.3-13-3.6-4.5-9.2-6-12.6-3.3-3.4 2.7-3.2 8.5.4 13 3.5 4.5 9.2 6 12.5 3.3Z"/>
  <path stroke="#31333A" stroke-linecap="round" stroke-linejoin="round" d="M158.6 65.4c.6-.4 23 2.9 23 2.9l-7.1-23c4.4-5.5 9.7-5.8 9.7-5.8l19 37c9.4 16.3-13.9 14.2-20.4 15.8L147.3 91l11.3-25.6Z"/>
  <path fill="#5578EC" d="M309.5 148.4h-228a4.8 4.8 0 0 0-4.8 4.8v52.4a4.8 4.8 0 0 0 4.9 4.9h227.9a4.8 4.8 0 0 0 4.8-4.9v-52.4a4.8 4.8 0 0 0-4.8-4.8Z"/>
  <path stroke="#31333A" stroke-linecap="round" stroke-linejoin="round" d="M309.5 148.4h-228a4.8 4.8 0 0 0-4.8 4.8v52.4a4.8 4.8 0 0 0 4.9 4.9h227.9a4.8 4.8 0 0 0 4.8-4.9v-52.4a4.8 4.8 0 0 0-4.8-4.8Z"/>
  <path fill="#fff" stroke="#31333A" stroke-linecap="round" stroke-linejoin="round" d="M281.7 164.6h-130a3.4 3.4 0 0 0-3.4 3.4v3a3.4 3.4 0 0 0 3.5 3.4h129.9a3.4 3.4 0 0 0 3.4-3.4v-3a3.4 3.4 0 0 0-3.4-3.4Zm-86.8 14.8h-43.1a3.4 3.4 0 0 0-3.5 3.5v2.7a3.4 3.4 0 0 0 3.5 3.5h43a3.4 3.4 0 0 0 3.5-3.5V183a3.4 3.4 0 0 0-3.4-3.5ZM113 192a3.6 3.6 0 0 1-2.5-1l-12.3-12a3.9 3.9 0 0 1-.3-5.4 3.6 3.6 0 0 1 4-1c.5.2.9.4 1.2.8l10 9.4 17.5-17.2a3.6 3.6 0 0 1 4-.8c.5.2.9.5 1.2.9a3.9 3.9 0 0 1-.1 5.4l-20 19.6a3.6 3.6 0 0 1-2.6 1Zm113-38.3c4.1 5.4 25.4-31.7 25.4-31.7l-45.3-43.3a7.6 7.6 0 0 0-5.6-1.9 7.6 7.6 0 0 0-5.2 2.7l-55.8 44.9 34.4 5.5 5.8-.8 22.5-22.2s20.9 43.1 23.7 46.8Z"/>
  <path fill="#fff" d="m217.8 227-13 3.6-.3-32.5 17.7 1-4.4 28Z"/>
  <path fill="#DCDDDD" d="M196.5 226.2a40.3 40.3 0 0 0 19.3-11.5l-21.7-1"/>
  <path stroke="#31333A" stroke-linecap="round" stroke-linejoin="round" d="m217.8 227-13 3.6-.3-32.5 17.7 1-4.4 28Z"/>
  <path fill="#fff" d="m204.4 243.4-.5-13.6 15.8-6.4S216.4 235 232 236c16.9 1 13.7 7.1 13.7 7.1l-41.2.4Z"/>
  <path stroke="#31333A" stroke-linecap="round" stroke-linejoin="round" d="m201.7 241.8 52.2-1.2"/>
  <path fill="#fff" stroke="#31333A" stroke-linecap="round" stroke-linejoin="round" d="M212.2 236.8c1.9 0 3.4-1.5 3.4-3.4a3.4 3.4 0 1 0-6.7 0c0 1.9 1.5 3.4 3.3 3.4Z"/>
  <path fill="#fff" d="m218 230.6 8.2-6 1.3 6.4-8.8 4.3"/>
  <path stroke="#31333A" stroke-linecap="round" stroke-linejoin="round" d="m218 230.6 8.2-6 1.3 6.4-8.8 4.3"/>
  <path stroke="#31333A" stroke-linecap="round" stroke-linejoin="round" d="m204.4 243.4-.5-13.6 15.8-6.4S216.4 235 232 236c16.9 1 13.7 7.1 13.7 7.1l-41.2.4Z"/>
  <path fill="#fff" d="M185.2 209.6c7.9 8.6 40.8 4.6 40.8 4.6l10.4-83.5c.7-6.6-5.4-12.5-13.4-12.7h-76.8l-17.4 1.6 3-6.7c-9.4 19.8-.2 34.8 16.6 35.5l57.3.1s-22.5 59-20.5 61.1Z"/>
  <path fill="#DCDDDD" d="M99.3 140.5s83.7-21.2 78.8-21.2c-4.9 0-33-6.4-33-6.4"/>
  <path fill="#fff" d="M183 199.3c21.3 15.7 59 4.3 59 4.3l-59-4.3Z"/>
  <path stroke="#31333A" stroke-linecap="round" stroke-linejoin="round" d="M183 199.3c21.3 15.7 59 4.3 59 4.3"/>
  <path fill="#fff" d="M142.6 126.3c.3 13.4 52.3 11.3 71 10.1a4.5 4.5 0 0 1 3.8 1.8 4.5 4.5 0 0 1 .6 4.2l-19.8 62.2"/>
  <path stroke="#31333A" stroke-linecap="round" stroke-linejoin="round" d="M142.6 126.3c.3 13.4 52.3 11.3 71 10.1a4.5 4.5 0 0 1 3.8 1.8 4.5 4.5 0 0 1 .6 4.2l-19.8 62.2"/>
  <path fill="#fff" d="M159 123.8a11.3 11.3 0 0 1 1 11.9"/>
  <path stroke="#31333A" stroke-linecap="round" stroke-linejoin="round" d="M159 123.8a11.3 11.3 0 0 1 1 11.9"/>
  <path stroke="#31333A" stroke-linecap="round" stroke-linejoin="round" d="M185.2 209.6c7.9 8.6 40.8 4.6 40.8 4.6l10.4-83.5c.7-6.6-5.4-12.5-13.4-12.7h-76.8l-17.4 1.6 3-6.7c-9.4 19.8-.2 34.8 16.6 35.5l57.3.1s-22.5 59-20.5 61.1Z"/>
  <path fill="#DCDDDD" d="M157 76c2.4 3.5 5 8.3-.6 12.4 0 0 4.3 17.4 8.6 20.8s-37 8.1-37 8.1l-11.2-47s30.6-7.7 46-4.4"/>
  <path fill="#fff" stroke="#31333A" stroke-linecap="round" stroke-linejoin="round" d="M144.1 76.2c2-3-1.5-8.7-7.6-12.4-6-3.8-12.6-4.3-14.5-1.2-2 3.1 1.4 8.7 7.6 12.5 6 3.7 12.6 4.3 14.5 1.1Zm-25 17.6c3.3-2.7 3.1-8.5-.4-13-3.6-4.5-9.2-6-12.6-3.3-3.4 2.7-3.2 8.5.3 13 3.6 4.5 9.2 6 12.6 3.3Zm5.1 43.2c3.4-2.7 3.2-8.5-.3-13-3.6-4.5-9.2-6-12.6-3.3-3.4 2.6-3.2 8.5.3 13 3.6 4.5 9.2 6 12.6 3.3Zm26.7 1.5c3.3-2.7 3.2-8.5-.4-13s-9.2-6-12.6-3.3c-3.3 2.6-3.2 8.5.4 13 3.5 4.5 9.2 6 12.6 3.3Z"/>
  <path fill="#fff" stroke="#31333A" stroke-linecap="round" stroke-linejoin="round" d="M140.8 73.9c1.8-2.7-.9-7.6-6-11.1s-10.8-4.1-12.6-1.4c-1.8 2.7 1 7.6 6 11 5.2 3.5 10.8 4.2 12.6 1.5Z"/>
  <path stroke="#31333A" stroke-linecap="round" stroke-linejoin="round" d="M157 76c2.4 3.5 5 8.3-.6 12.4 0 0 4.3 17.4 8.6 20.8s-37 8.1-37 8.1l-11.2-47s30.6-7.7 46-4.4"/>
  <path fill="#fff" d="M155.6 111c5.7.6 15.2-1.9 15.9-1.8 1.5.3 10 7.6 10.4 8.6.3 1-.7 1.8-7-1.9 0 0-.6 3.3-1.7 3.4l-17-.6-.6-7.8Z"/>
  <path fill="#DCDDDD" d="M161.7 127.8c5.3-12.5 3.3-18.6 3.3-18.6l-8.6 2.8 5 18"/>
  <path stroke="#31333A" stroke-linecap="round" stroke-linejoin="round" d="M155.6 111c5.7.6 15.2-1.9 15.9-1.8 1.5.3 10 7.6 10.4 8.6.3 1-.7 1.8-7-1.9 0 0-.6 3.3-1.7 3.4l-17-.6-.6-7.8Z"/>
  <path fill="#fff" stroke="#31333A" stroke-linecap="round" stroke-linejoin="round" d="M168 119h48.8v2.9H165v0a2.9 2.9 0 0 1 3-3Z"/>
  <path fill="#DCDDDD" d="M216.5 119H183l10-28.8a3.6 3.6 0 0 1 3.4-2.4h27.5a2.6 2.6 0 0 1 2.4 3.5l-9.8 27.5Zm-88-29.7-1.5 18.5 34.9 2.6s2.4 9 .9 10.7c-1.5 1.6-50.7 4.8-52.6 2.4-4.3-5.3-3.8-42.3-3.8-42.3a12.7 12.7 0 0 1 10.4-11l2.9-.6"/>
  <path fill="#fff" stroke="#31333A" stroke-linecap="round" stroke-linejoin="round" d="M157.9 81c3.3-2.7 3.2-8.5-.4-13s-9.2-6-12.6-3.3c-3.3 2.7-3.2 8.5.4 13s9.2 6 12.6 3.3Zm-12.2 14.3c3.3-2.7 3.2-8.5-.4-13s-9.2-6-12.6-3.3c-3.4 2.7-3.2 8.5.4 13 3.5 4.5 9.2 6 12.6 3.3Z"/>
  <path stroke="#31333A" stroke-linecap="round" stroke-linejoin="round" d="m128.4 89.3-1.4 18.5 34.9 2.6s2.4 9 .9 10.7c-1.5 1.6-50.7 4.8-52.6 2.4-4.3-5.3-3.8-42.3-3.8-42.3a12.7 12.7 0 0 1 10.4-11l2.9-.6"/>
  <path fill="#fff" stroke="#31333A" stroke-linecap="round" stroke-linejoin="round" d="M207.4 105.4c1.7-1.1 2.5-3 1.6-4.3-.8-1.3-2.8-1.4-4.6-.2-1.7 1-2.4 3-1.6 4.3.9 1.2 3 1.3 4.6.2Z"/>
  <path stroke="#31333A" stroke-linecap="round" stroke-linejoin="round" d="m184.3 76-2.6-7.7m-5.8-34.4-1.4-1m-2.2 81.4 2.7 1.6"/>
  <path fill="#3351E5" d="m222.2 35.6 3.2 6.7 7.1 1-5.1 5.2 1.2 7.4-6.4-3.5L216 56l1.2-7.4-5.2-5.1 7.1-1.1 3.2-6.7Z"/>
  <path fill="#fff" d="m127 67-1.1.4-.4 1.9 10.1-1.5h.5v-2l-2-.7"/>
  <path stroke="#3351E5" stroke-linecap="round" stroke-linejoin="round" stroke-width="2" d="M100.8 127.3a5.4 5.4 0 1 0 0-10.8 5.4 5.4 0 0 0 0 10.8ZM269 79.5l9-3.3m-13.6 11.2 9.1-3.3"/>
</svg>