<?xml version="1.0" encoding="utf-8"?>
<svg xmlns="http://www.w3.org/2000/svg" viewBox="0 0 567 231">
  <path fill="#0047BB" d="M 221.716 182.09 L 245.786 182.09 C 245.566 175.731 240.096 170.834 233.751 171.315 C 225.774 171.175 222.276 177.192 221.716 182.09 M 233.751 160.959 C 248.305 160.959 258.241 171.875 258.241 187.828 L 258.241 190.627 L 221.996 190.627 C 222.836 196.784 227.734 201.962 235.99 201.962 C 240.468 201.962 245.926 200.143 249.005 197.064 L 254.602 205.321 C 248.919 209.924 241.759 212.31 234.451 212.038 C 219.617 212.038 208.422 202.102 208.422 186.429 C 208.422 172.435 218.917 160.959 233.751 160.959 M 300.363 211.058 L 300.363 181.531 C 300.363 174.814 296.864 172.435 291.407 172.435 C 286.369 172.435 282.45 175.233 280.351 178.172 L 280.351 211.058 L 267.477 211.058 L 267.477 162.219 L 280.351 162.219 L 280.351 168.656 C 283.43 164.878 289.447 161.099 297.424 161.099 C 308.06 161.099 313.237 167.117 313.237 176.633 L 313.237 211.058 L 300.363 211.058 Z M 336.048 182.09 L 360.118 182.09 C 359.897 175.731 354.428 170.834 348.083 171.315 C 340.106 171.175 336.607 177.192 336.048 182.09 M 348.083 160.959 C 362.636 160.959 372.572 171.875 372.572 187.828 L 372.572 190.627 L 336.188 190.627 C 337.027 196.784 341.925 201.962 350.182 201.962 C 354.66 201.962 360.118 200.143 363.196 197.064 L 368.794 205.321 C 363.896 209.799 356.199 212.038 348.642 212.038 C 333.809 212.038 322.613 202.102 322.613 186.429 C 322.456 172.297 333.951 160.801 348.083 160.959 M 381.808 211.058 L 381.808 162.219 L 394.683 162.219 L 394.683 168.936 C 398.483 164.2 404.149 161.342 410.216 161.099 L 410.216 173.554 L 406.718 173.274 C 402.52 173.274 396.782 175.653 394.683 178.732 L 394.683 210.918 L 381.808 211.058 Z M 451.639 178.032 C 449.026 174.547 444.939 172.478 440.583 172.435 C 433.307 172.435 428.269 177.472 428.269 185.869 C 428.269 194.265 433.307 199.303 440.583 199.303 C 444.782 199.303 449.54 196.924 451.639 193.706 L 451.639 178.032 Z M 422.951 214.277 C 426.869 218.615 432.047 220.294 438.204 220.294 C 444.362 220.294 451.639 217.635 451.639 207.979 L 451.639 203.082 C 448.1 207.891 442.496 210.745 436.525 210.778 C 424.35 210.778 414.974 202.242 414.974 185.869 C 414.974 169.916 424.21 160.959 436.525 160.959 C 442.403 160.959 447.58 163.478 451.639 168.376 L 451.639 162.079 L 464.513 162.079 L 464.513 207.56 C 464.513 226.172 450.239 230.65 438.204 230.65 C 430.525 231.064 422.989 228.452 417.213 223.373 L 422.951 214.277 Z M 477.248 162.219 L 490.122 162.219 L 490.122 211.058 L 477.248 211.058 L 477.248 162.219 Z M 475.988 147.385 C 475.988 143.187 479.487 139.688 483.685 139.688 C 487.883 139.688 491.382 143.047 491.382 147.385 C 491.382 151.583 487.883 155.082 483.685 155.082 C 479.487 155.082 475.988 151.583 475.988 147.385 M 512.933 182.09 L 537.003 182.09 C 536.782 175.731 531.313 170.834 524.968 171.315 C 516.991 171.175 513.493 177.192 512.933 182.09 M 524.968 160.959 C 539.522 160.959 549.457 171.875 549.457 187.828 L 549.457 190.627 L 513.213 190.627 C 514.052 196.784 518.95 201.962 527.207 201.962 C 531.685 201.962 537.143 200.143 540.221 197.064 L 545.819 205.321 C 540.921 209.799 533.224 212.038 525.667 212.038 C 510.834 212.038 499.638 202.102 499.638 186.429 C 499.638 172.435 510.134 160.959 524.968 160.959 M 234.311 72.657 C 244.247 72.657 250.404 76.995 253.623 81.473 L 245.226 89.31 C 242.9 85.895 239.001 83.893 234.871 83.992 C 227.034 83.992 221.576 89.59 221.576 98.126 C 221.576 106.662 227.034 112.4 234.871 112.4 C 239.349 112.4 242.847 110.441 245.226 107.082 L 253.623 114.919 C 250.404 119.397 244.387 123.735 234.311 123.735 C 219.858 124.398 207.916 112.585 208.422 98.126 C 208.422 83.292 219.197 72.657 234.311 72.657 M 297.144 98.266 C 297.144 90.709 292.666 84.132 284.55 84.132 C 276.433 84.132 272.095 90.709 272.095 98.266 C 272.095 105.963 276.573 112.54 284.55 112.54 C 292.526 112.54 297.144 105.963 297.144 98.266 M 258.94 98.266 C 258.94 84.412 268.596 72.657 284.689 72.657 C 300.783 72.657 310.579 84.412 310.579 98.266 C 310.579 112.26 300.923 123.875 284.689 123.875 C 270.291 124.454 258.44 112.667 258.94 98.266 M 319.955 55.304 L 332.829 55.304 L 332.829 122.756 L 319.955 122.756 L 319.955 55.304 Z M 345.564 55.304 L 358.438 55.304 L 358.438 122.756 L 345.564 122.756 L 345.564 55.304 Z M 381.249 93.648 L 405.318 93.648 C 405.098 87.289 399.628 82.391 393.283 82.872 C 385.167 82.872 381.808 88.89 381.249 93.648 M 393.283 72.657 C 407.837 72.657 417.773 83.572 417.773 99.525 L 417.773 102.324 L 381.528 102.324 C 382.368 108.482 387.266 113.659 395.523 113.659 C 400.001 113.659 405.458 111.84 408.537 108.761 L 414.135 117.018 C 409.237 121.496 401.54 123.735 393.983 123.735 C 379.149 123.735 367.954 113.659 367.954 98.126 C 367.954 84.132 378.31 72.657 393.283 72.657 M 449.68 72.657 C 459.615 72.657 465.773 76.995 468.991 81.473 L 460.595 89.31 C 458.269 85.895 454.37 83.893 450.239 83.992 C 442.403 83.992 436.945 89.59 436.945 98.126 C 436.945 106.662 442.403 112.4 450.239 112.4 C 454.717 112.4 458.216 110.441 460.595 107.082 L 468.991 114.919 C 465.773 119.397 459.755 123.735 449.68 123.735 C 435.227 124.398 423.285 112.585 423.791 98.126 C 423.791 83.292 434.706 72.657 449.68 72.657 M 480.746 110.581 L 480.746 85.111 L 472.63 85.111 L 472.63 73.916 L 480.746 73.916 L 480.746 60.622 L 493.621 60.622 L 493.621 73.916 L 503.557 73.916 L 503.557 85.111 L 493.621 85.111 L 493.621 107.082 C 493.621 110.161 495.3 112.4 498.099 112.4 C 500.058 112.4 501.877 111.7 502.577 111.001 L 505.376 120.656 C 503.417 122.336 500.058 123.735 494.741 123.735 C 485.644 123.875 480.746 119.257 480.746 110.581 M 512.653 73.916 L 525.527 73.916 L 525.527 122.756 L 512.653 122.756 L 512.653 73.916 Z M 511.254 59.083 C 511.254 54.884 514.752 51.386 518.95 51.386 C 523.148 51.386 526.647 54.744 526.647 59.083 C 526.647 63.281 523.148 66.779 518.95 66.779 C 514.731 66.705 511.328 63.302 511.254 59.083 M 554.075 85.111 L 554.075 122.616 L 541.201 122.616 L 541.201 85.111 L 533.084 85.111 L 533.084 73.916 L 541.201 73.916 L 541.201 71.257 C 541.201 60.622 548.058 54.325 557.714 54.325 C 561.352 54.325 564.711 55.164 566.95 56.284 L 564.291 65.38 C 563.172 64.68 561.632 64.4 560.093 64.4 C 556.454 64.4 554.075 66.779 554.075 71.537 L 554.075 73.916 L 564.011 73.916 L 564.011 85.111 L 554.075 85.111 Z M 216.818 137.169 L 249.145 137.169 L 249.145 147.665 L 216.818 147.665 L 216.818 137.169 Z M 139.711 64.68 L 139.711 62.161 C 139.711 58.297 136.578 55.164 132.714 55.164 L 123.478 55.164 C 119.613 55.164 116.481 58.297 116.481 62.161 L 116.481 64.68 L 100.388 64.68 L 100.388 114.639 L 87.933 114.639 L 87.933 112.12 C 87.933 108.256 84.8 105.123 80.936 105.123 L 71.7 105.123 C 67.835 105.123 64.703 108.256 64.703 112.12 L 64.703 114.639 L 50.429 114.639 L 50.429 164.738 L 38.114 164.738 L 38.114 162.219 C 38.114 158.354 34.981 155.222 31.117 155.222 L 21.881 155.222 C 18.016 155.222 14.884 158.354 14.884 162.219 L 14.884 164.738 L 0.05 164.738 L 0.05 220.294 L 155.944 220.294 L 155.944 64.68 L 139.711 64.68 Z M 55.746 120.097 L 100.248 120.097 L 100.248 164.598 L 55.746 164.598 L 55.746 120.097 Z M 100.248 214.697 L 55.746 214.697 L 55.746 170.195 L 100.248 170.195 L 100.248 214.697 Z M 150.346 214.697 L 105.845 214.697 L 105.845 170.195 L 150.346 170.195 L 150.346 214.697 Z M 105.845 114.779 L 105.845 70.278 L 150.346 70.278 L 150.346 114.779 L 105.845 114.779 Z M 55.467 9.823 L 39.373 9.823 L 39.373 7.304 C 39.373 3.44 36.241 0.307 32.376 0.307 L 23.14 0.307 C 19.276 0.307 16.143 3.44 16.143 7.304 L 16.143 9.823 L 0.05 9.823 L 0.05 65.38 L 55.606 65.38 L 55.606 9.823 L 55.467 9.823 Z" />
</svg>