<?xml version="1.0" encoding="utf-8"?>
<svg viewBox="0 0 500 500" xmlns="http://www.w3.org/2000/svg">
  <circle style="fill: none; stroke: rgb(0, 49, 79); stroke-width: 14px;" cx="250" cy="250" r="238.484"/>
  <path d="M 219.831 355.657 L 167 369.365 C 172.874 340.446 178.526 312.178 183.958 284.563 C 185.918 272.823 188.092 260.594 190.481 247.877 C 192.876 235.161 195.103 222.551 197.163 210.048 C 199.231 197.544 201.188 185.48 203.033 173.854 C 204.887 162.22 206.355 151.621 207.439 142.055 C 219.835 138.141 233.208 135.261 247.557 133.416 C 261.906 131.562 276.144 130.635 290.273 130.635 C 298.755 130.635 305.766 131.616 311.305 133.576 C 316.851 135.529 321.199 138.302 324.349 141.895 C 327.507 145.48 329.739 149.664 331.043 154.447 C 332.348 159.23 333 164.555 333 170.421 C 333 179.118 331.478 187.654 328.434 196.03 C 325.391 204.398 321.314 212.333 316.202 219.831 C 311.091 227.33 305.22 234.18 298.592 240.382 C 291.963 246.576 284.841 251.631 277.228 255.544 C 281.141 264.241 285.326 273.753 289.781 284.082 C 294.243 294.404 298.431 304.241 302.345 313.593 C 306.693 324.464 311.148 335.334 315.71 346.205 L 265.167 363.815 C 260.819 348.811 256.906 334.679 253.427 321.42 C 251.902 315.981 250.38 310.381 248.861 304.622 C 247.336 298.863 245.921 293.428 244.616 288.316 C 243.312 283.205 242.225 278.693 241.355 274.779 C 240.485 270.866 239.944 267.822 239.73 265.648 L 235.485 266.953 C 234.18 273.91 232.605 282.389 230.759 292.39 C 228.913 302.391 227.227 312.068 225.701 321.42 C 223.748 332.505 221.791 343.916 219.831 355.657 Z M 254.079 175.971 L 243.644 227.818 C 247.771 227.383 252.824 225.644 258.805 222.6 C 264.786 219.557 270.492 215.918 275.924 211.684 C 281.362 207.442 286.039 203.037 289.952 198.468 C 293.866 193.905 295.823 189.886 295.823 186.407 C 295.823 184.012 295.059 182.108 293.534 180.697 C 292.016 179.286 289.895 178.199 287.172 177.436 C 284.456 176.673 281.47 176.185 278.212 175.971 C 274.948 175.75 271.575 175.639 268.097 175.639 C 265.709 175.639 263.264 175.697 260.762 175.811 C 258.259 175.917 256.033 175.971 254.079 175.971 Z" style="fill: rgb(0, 49, 79); white-space: pre;"/>
</svg>