<?xml version="1.0" encoding="utf-8"?>
<svg viewBox="0 0 900 400" xmlns="http://www.w3.org/2000/svg">
  <path d="M 354.367 35.286 C 383.208 35.193 412.08 35.286 440.952 35.255 C 447.558 35.317 454.194 35.006 460.799 35.751 C 485.167 38.215 507.621 50.059 523.412 68.778 C 550.222 100.57 553.165 146.127 530.67 181.103 C 517.965 200.797 498.406 215.074 475.778 221.171 C 475.623 221.544 475.902 221.916 475.996 222.256 L 537.182 354.584 C 538.67 357.964 540.407 361.251 541.772 364.663 C 534.205 364.818 526.637 364.694 519.102 364.756 L 482.198 364.756 C 481.733 364.786 481.267 364.569 481.143 364.105 L 424.608 224.645 C 424.206 223.559 423.616 222.505 423.43 221.357 C 440.673 221.264 457.884 221.357 475.096 221.295 C 473.452 217.357 471.437 213.542 469.669 209.665 L 453.109 174.808 C 487.724 173.471 507.912 135.163 489.446 105.854 C 480.876 92.251 465.701 84.254 449.635 84.874 C 417.911 84.874 386.154 84.905 354.398 84.843 C 354.211 83.292 354.336 81.742 354.336 80.222 L 354.336 38.976 C 354.336 37.736 354.243 36.495 354.398 35.286 L 354.367 35.286 Z M 403.986 175.583 C 404.669 176.327 404.916 177.32 405.32 178.22 L 421.074 216.054 C 421.787 217.821 422.593 219.527 423.244 221.327 L 403.986 221.327 C 403.799 216.985 403.986 212.643 403.893 208.301 L 403.893 179.46 C 403.893 178.157 403.862 176.886 403.986 175.583 Z M 354.367 221.357 C 370.834 221.295 387.332 221.295 403.799 221.357 C 403.986 225.699 403.799 230.04 403.893 234.352 L 403.893 344.133 C 403.831 350.955 403.986 357.84 403.799 364.663 C 395.922 364.849 388.046 364.663 380.169 364.756 C 371.578 364.694 362.958 364.849 354.367 364.663 C 354.181 356.475 354.367 348.289 354.274 340.101 L 354.274 231.25 C 354.336 227.962 354.181 224.645 354.367 221.357 Z" style="fill: rgb(33, 96, 183);"/>
</svg>