<svg xmlns="http://www.w3.org/2000/svg" viewBox="0 0 500 500" class="icon-logo">
  <circle cx="250" cy="250" r="238.5" fill="none" stroke="currentColor" stroke-width="14"/>
  <path fill="currentColor" d="m220 356-53 13a14026 14026 0 0 0 36-195l4-32a333 333 0 0 1 83-11c9 0 16 1 21 3 6 2 10 4 13 8 4 3 6 8 7 12l2 16c0 9-2 18-5 26a107 107 0 0 1-29 44c-7 7-14 12-22 16a2009 2009 0 0 1 39 90l-51 18a1733 1733 0 0 1-25-98l-5 1a9169 9169 0 0 0-15 89Zm34-180-10 52 15-5a106 106 0 0 0 31-25c4-4 6-8 6-12l-2-5-7-4-9-1a150 150 0 0 0-24 0Z" style="white-space:pre"/>
</svg>
